<svg xmlns="http://www.w3.org/2000/svg" xmlns:xlink="http://www.w3.org/1999/xlink" width="500" zoomAndPan="magnify" viewBox="0 0 375 374.999991" height="500" preserveAspectRatio="xMidYMid meet" version="1.0"><defs><clipPath id="2de7b33818"><path d="M 99 239 L 169 239 L 169 364.546875 L 99 364.546875 Z M 99 239 " clip-rule="nonzero"/></clipPath></defs><rect x="-37.5" width="450" fill="#ffffff" y="-37.499999" height="449.999989" fill-opacity="1"/><rect x="-37.5" width="450" fill="#ffffff" y="-37.499999" height="449.999989" fill-opacity="1"/><path fill="#000000" d="M 32.535156 222.710938 C 32.03125 222.808594 31.628906 222.910156 31.125 222.910156 C 30.722656 222.910156 30.21875 223.011719 29.714844 223.113281 C 28.605469 223.3125 27.398438 223.515625 26.289062 223.617188 C 25.179688 223.71875 23.972656 223.917969 22.863281 224.121094 C 22.058594 224.320312 21.355469 224.421875 20.648438 224.523438 C 19.945312 224.523438 19.238281 224.625 18.433594 224.722656 C 17.527344 224.824219 16.71875 224.824219 15.914062 224.824219 C 15.109375 224.824219 14.304688 224.824219 13.496094 224.824219 C 11.886719 224.824219 10.375 224.722656 8.863281 224.421875 C 7.753906 224.121094 6.648438 223.816406 5.640625 223.3125 C 4.632812 222.910156 3.726562 222.304688 2.820312 221.5 C 1.511719 220.191406 0.703125 218.578125 0.402344 216.867188 C 0 215.253906 0.203125 213.441406 0.804688 211.527344 L 1.207031 209.8125 C 1.710938 208.703125 2.617188 208 3.929688 207.796875 C 5.339844 207.796875 6.445312 208.300781 7.050781 209.410156 C 7.554688 210.316406 7.65625 211.023438 7.453125 211.726562 C 7.253906 212.230469 7.152344 212.632812 7.050781 213.136719 C 6.949219 213.640625 6.847656 214.042969 6.648438 214.546875 C 6.445312 215.554688 6.75 216.460938 7.65625 216.964844 C 7.855469 217.269531 8.160156 217.46875 8.664062 217.570312 C 9.769531 217.972656 11.179688 218.175781 12.792969 218.175781 C 13.898438 218.175781 15.109375 218.175781 16.316406 218.074219 C 17.527344 218.074219 18.734375 217.972656 19.945312 217.875 C 20.75 217.875 21.453125 217.875 22.160156 217.773438 C 22.863281 217.671875 23.671875 217.570312 24.375 217.371094 C 25.179688 217.269531 25.886719 217.167969 26.492188 217.066406 C 27.195312 216.964844 27.902344 216.867188 28.605469 216.765625 C 29.410156 216.5625 30.117188 216.460938 30.722656 216.363281 C 31.324219 216.261719 32.03125 216.160156 32.835938 215.957031 C 32.835938 215.859375 32.835938 215.859375 32.9375 215.859375 C 33.039062 215.355469 33.136719 214.851562 33.136719 214.449219 C 33.136719 213.945312 33.238281 213.441406 33.238281 213.035156 L 33.640625 207.394531 C 33.742188 206.789062 33.742188 206.285156 33.742188 205.683594 C 33.742188 205.078125 33.742188 204.574219 33.742188 204.070312 C 33.945312 203.0625 34.246094 202.15625 34.75 201.449219 C 35.65625 200.441406 36.867188 200.140625 38.375 200.34375 C 38.980469 200.441406 39.484375 200.644531 39.886719 200.847656 C 40.289062 201.046875 40.792969 201.351562 41.296875 201.753906 C 42.707031 202.761719 44.015625 203.96875 45.226562 205.179688 C 45.828125 206.085938 46.03125 206.890625 45.929688 207.597656 C 45.828125 208.605469 45.828125 209.511719 45.828125 210.316406 C 45.828125 211.121094 45.730469 212.128906 45.730469 213.035156 L 45.730469 213.441406 C 46.132812 213.339844 46.433594 213.339844 46.738281 213.339844 C 47.039062 213.339844 47.339844 213.339844 47.644531 213.238281 C 48.449219 213.136719 49.152344 213.035156 49.960938 212.9375 C 50.765625 212.835938 51.46875 212.734375 52.277344 212.535156 C 53.285156 212.332031 54.289062 212.128906 55.296875 211.929688 C 56.203125 211.726562 57.210938 211.527344 58.21875 211.324219 C 59.125 211.222656 59.929688 211.121094 60.839844 211.023438 C 61.746094 210.921875 62.550781 210.820312 63.457031 210.71875 C 64.363281 210.519531 65.371094 210.417969 66.277344 210.316406 C 67.183594 210.316406 68.089844 210.113281 69.097656 209.914062 L 71.011719 209.914062 C 72.21875 209.914062 73.429688 209.914062 74.636719 209.8125 C 75.847656 209.8125 77.054688 209.8125 78.261719 209.914062 C 79.875 210.113281 81.488281 210.316406 83.199219 210.617188 C 84.8125 210.921875 86.421875 211.425781 87.933594 212.03125 C 89.542969 212.835938 90.953125 213.742188 92.164062 214.851562 C 93.371094 215.957031 94.378906 217.371094 95.085938 218.980469 C 95.386719 219.585938 95.488281 220.292969 95.488281 221.097656 C 95.488281 221.902344 94.984375 222.609375 94.277344 223.011719 C 93.472656 223.515625 92.769531 223.714844 91.960938 223.714844 C 91.15625 223.714844 90.550781 223.414062 89.949219 222.808594 C 89.542969 222.40625 89.34375 222.105469 89.242188 221.800781 C 88.234375 219.988281 86.722656 218.679688 84.609375 217.875 C 83.5 217.371094 82.492188 217.066406 81.386719 216.964844 C 80.277344 216.867188 79.171875 216.664062 77.960938 216.5625 C 77.15625 216.460938 76.449219 216.363281 75.542969 216.363281 C 74.738281 216.363281 73.933594 216.261719 73.125 216.261719 C 72.21875 216.261719 71.414062 216.261719 70.609375 216.363281 C 69.800781 216.363281 68.996094 216.460938 68.089844 216.5625 C 67.082031 216.664062 66.175781 216.765625 65.371094 216.867188 C 64.464844 216.964844 63.558594 217.066406 62.652344 217.167969 C 61.84375 217.371094 61.140625 217.46875 60.335938 217.570312 C 59.527344 217.570312 58.824219 217.773438 58.019531 217.972656 C 57.011719 218.175781 56.003906 218.375 54.996094 218.476562 C 53.988281 218.578125 53.082031 218.78125 52.074219 218.980469 C 51.066406 219.183594 50.160156 219.382812 49.355469 219.484375 C 48.449219 219.585938 47.644531 219.789062 46.738281 219.988281 C 46.535156 220.089844 46.234375 220.089844 45.828125 220.089844 C 45.628906 220.59375 45.527344 221.097656 45.527344 221.5 C 45.527344 222.003906 45.425781 222.507812 45.425781 222.910156 C 45.226562 223.617188 45.125 224.21875 45.023438 224.925781 C 44.921875 225.632812 44.921875 226.234375 44.824219 226.941406 C 44.621094 227.847656 44.519531 228.652344 44.417969 229.558594 C 44.320312 230.46875 44.21875 231.273438 44.117188 232.179688 C 43.917969 232.984375 43.816406 233.691406 43.714844 234.496094 C 43.714844 235.304688 43.613281 236.007812 43.511719 236.8125 C 43.414062 237.117188 43.414062 237.417969 43.414062 237.722656 C 43.414062 238.023438 43.414062 238.324219 43.3125 238.628906 C 43.210938 239.332031 43.109375 239.9375 43.109375 240.644531 C 43.109375 241.347656 43.007812 242.054688 42.910156 242.757812 L 42.003906 248.804688 C 41.902344 249.710938 41.800781 250.515625 41.800781 251.324219 C 41.800781 252.128906 41.699219 252.933594 41.597656 253.742188 C 41.398438 254.648438 41.296875 255.453125 41.195312 256.359375 C 41.195312 257.265625 41.097656 258.074219 40.996094 258.980469 C 40.894531 259.28125 40.894531 259.585938 40.894531 259.886719 C 40.894531 260.1875 40.894531 260.492188 40.792969 260.894531 L 40.390625 267.34375 C 40.289062 268.449219 40.1875 269.355469 40.1875 270.265625 C 40.1875 271.171875 40.089844 272.179688 39.988281 273.1875 L 39.988281 279.332031 C 39.988281 280.136719 39.988281 280.84375 39.988281 281.75 C 39.988281 282.554688 39.988281 283.363281 40.089844 284.167969 C 40.1875 285.175781 40.289062 286.183594 40.492188 287.089844 C 40.59375 287.996094 40.894531 288.902344 41.296875 289.910156 C 41.5 290.414062 41.902344 291.019531 42.40625 291.824219 C 42.910156 292.632812 43.414062 292.632812 43.816406 291.824219 C 44.21875 291.320312 44.621094 290.816406 44.921875 290.3125 C 45.328125 289.808594 45.730469 289.207031 46.03125 288.703125 C 47.140625 286.886719 48.246094 285.074219 49.152344 283.261719 C 50.160156 281.449219 51.066406 279.53125 52.074219 277.617188 C 52.980469 275.703125 53.789062 273.789062 54.695312 271.976562 C 55.601562 270.164062 56.40625 268.25 57.210938 266.335938 C 58.117188 264.421875 58.925781 262.507812 59.628906 260.59375 C 60.433594 258.675781 61.140625 256.761719 61.945312 254.847656 C 62.148438 254.34375 62.347656 253.941406 62.550781 253.539062 C 62.75 253.136719 62.953125 252.734375 63.15625 252.230469 C 63.355469 251.625 63.757812 251.222656 64.566406 250.917969 C 65.269531 250.617188 65.976562 250.617188 66.78125 250.820312 C 67.789062 251.121094 68.390625 251.726562 68.796875 252.53125 C 69.199219 253.335938 69.199219 254.34375 68.796875 255.253906 C 68.492188 256.058594 68.191406 256.761719 67.890625 257.46875 C 67.585938 258.175781 67.285156 258.980469 66.980469 259.683594 C 66.480469 260.894531 65.976562 262.203125 65.570312 263.414062 C 65.070312 264.621094 64.566406 265.933594 64.160156 267.140625 L 62.046875 272.78125 C 61.339844 274.195312 60.738281 275.703125 60.132812 277.113281 C 59.527344 278.527344 58.824219 280.035156 58.21875 281.546875 C 57.515625 282.859375 56.910156 284.269531 56.304688 285.578125 C 55.699219 286.886719 54.996094 288.296875 54.390625 289.609375 C 53.484375 291.21875 52.679688 292.832031 51.773438 294.34375 C 50.867188 295.855469 49.859375 297.367188 48.851562 298.777344 C 47.644531 300.390625 46.234375 301.699219 44.824219 302.503906 C 43.3125 303.410156 41.699219 303.714844 39.886719 303.210938 C 38.878906 303.109375 37.871094 302.808594 36.867188 302.304688 C 36.058594 301.898438 35.355469 301.394531 34.75 300.894531 C 34.046875 300.289062 33.441406 299.683594 32.835938 298.976562 C 31.726562 297.46875 30.820312 295.753906 30.21875 293.941406 C 29.511719 292.027344 29.109375 289.910156 28.808594 287.492188 C 28.605469 286.183594 28.40625 284.875 28.304688 283.5625 C 28.203125 282.355469 28.101562 281.042969 28.101562 279.632812 C 28 278.023438 28 276.410156 28 274.695312 C 28 273.085938 28 271.472656 28 269.761719 C 28.101562 268.148438 28.203125 266.535156 28.304688 264.925781 C 28.40625 263.3125 28.503906 261.699219 28.605469 260.089844 C 28.707031 259.082031 28.808594 257.972656 28.808594 256.964844 C 28.90625 255.957031 28.90625 254.847656 29.007812 253.839844 C 29.210938 252.835938 29.3125 251.925781 29.410156 251.121094 C 29.511719 250.214844 29.613281 249.410156 29.816406 248.5 C 29.816406 248.199219 29.816406 247.898438 29.816406 247.59375 C 29.816406 247.292969 29.914062 246.992188 29.914062 246.6875 L 30.316406 241.953125 C 30.519531 241.148438 30.621094 240.441406 30.722656 239.734375 C 30.820312 239.03125 30.921875 238.324219 31.125 237.519531 C 31.125 236.714844 31.226562 236.210938 31.226562 235.808594 C 31.324219 235 31.425781 234.296875 31.425781 233.488281 C 31.425781 232.683594 31.527344 231.976562 31.628906 231.171875 C 31.828125 230.164062 31.929688 229.054688 32.03125 228.050781 C 32.132812 227.042969 32.230469 226.035156 32.433594 224.925781 C 32.433594 224.019531 32.433594 223.414062 32.535156 223.011719 C 32.636719 222.910156 32.636719 222.808594 32.535156 222.710938 Z M 32.535156 222.710938 " fill-opacity="1" fill-rule="nonzero"/><path fill="#000000" d="M 95.285156 262.40625 C 95.6875 262.304688 96.191406 262.203125 96.695312 262.003906 C 98.914062 261.195312 100.824219 260.1875 102.4375 258.980469 C 103.34375 258.375 104.148438 257.769531 104.957031 257.167969 C 105.761719 256.5625 106.566406 255.855469 107.375 255.050781 C 108.078125 254.445312 108.683594 253.839844 109.285156 253.238281 C 109.890625 252.632812 110.394531 251.925781 111 251.324219 C 111.90625 250.417969 112.914062 250.214844 114.019531 250.417969 C 115.429688 250.71875 116.238281 251.421875 116.335938 252.734375 C 116.640625 253.839844 116.4375 254.847656 115.734375 255.757812 C 114.726562 256.761719 113.820312 257.871094 112.8125 258.878906 C 111.804688 259.886719 110.796875 260.894531 109.789062 262.003906 C 108.882812 262.808594 108.078125 263.515625 107.171875 264.320312 C 106.265625 265.125 105.257812 265.832031 104.25 266.636719 C 103.144531 267.441406 102.136719 268.148438 101.027344 268.753906 C 99.917969 269.457031 98.710938 269.960938 97.402344 270.464844 C 97.199219 270.667969 97 270.769531 96.695312 270.867188 C 96.394531 270.867188 96.09375 271.070312 95.789062 271.273438 C 95.589844 271.273438 95.488281 271.371094 95.386719 271.675781 C 95.285156 272.277344 95.183594 272.78125 95.085938 273.386719 C 94.984375 273.992188 94.882812 274.496094 94.683594 275.101562 C 94.683594 275.503906 94.582031 275.804688 94.582031 276.007812 C 94.277344 278.121094 93.875 280.039062 93.273438 281.648438 C 93.070312 282.457031 92.867188 283.160156 92.667969 283.867188 C 92.464844 284.570312 92.164062 285.378906 91.761719 286.082031 C 91.15625 287.390625 90.550781 288.703125 89.847656 290.011719 C 89.140625 291.320312 88.234375 292.53125 87.226562 293.636719 C 85.917969 295.148438 84.105469 296.558594 81.890625 297.667969 C 80.882812 298.171875 79.671875 298.476562 78.261719 298.675781 C 77.257812 298.976562 76.046875 298.976562 74.839844 298.777344 C 71.617188 298.574219 68.59375 297.667969 65.875 296.058594 C 64.867188 295.25 64.0625 294.546875 63.253906 293.636719 C 62.449219 292.832031 61.746094 291.925781 61.140625 290.816406 C 60.636719 290.011719 60.234375 289.304688 59.929688 288.398438 C 59.628906 287.59375 59.328125 286.789062 59.023438 285.878906 C 58.519531 284.46875 58.21875 283.058594 58.117188 281.75 C 57.917969 280.742188 57.816406 279.835938 57.816406 279.03125 C 57.816406 278.222656 57.816406 277.214844 57.816406 276.308594 L 58.21875 271.976562 C 58.421875 271.273438 58.621094 270.667969 58.722656 270.0625 C 58.824219 269.457031 59.023438 268.753906 59.226562 268.148438 C 59.429688 267.644531 59.527344 267.140625 59.628906 266.636719 C 59.730469 266.132812 59.832031 265.628906 60.03125 265.125 C 60.234375 264.519531 60.433594 263.917969 60.535156 263.3125 C 60.636719 262.707031 60.839844 262.101562 61.039062 261.5 C 61.140625 261.097656 61.242188 260.792969 61.339844 260.390625 C 61.441406 260.089844 61.542969 259.785156 61.644531 259.484375 C 61.644531 259.28125 61.644531 259.179688 61.542969 259.082031 C 61.542969 259.082031 61.441406 258.980469 61.441406 258.878906 C 61.140625 258.476562 60.839844 257.972656 60.433594 257.167969 C 60.132812 256.460938 59.832031 255.855469 59.527344 255.253906 C 59.226562 254.648438 59.023438 253.941406 58.824219 253.339844 C 58.621094 252.734375 58.421875 252.128906 58.21875 251.523438 C 58.019531 250.917969 57.816406 250.214844 57.613281 249.609375 C 57.3125 248.5 57.109375 247.292969 57.011719 246.082031 C 56.910156 244.875 56.910156 243.664062 57.109375 242.457031 C 57.109375 241.851562 57.210938 241.347656 57.210938 240.742188 C 57.3125 240.140625 57.414062 239.636719 57.613281 239.03125 C 58.21875 237.117188 59.023438 235.402344 60.234375 233.992188 C 60.636719 233.488281 61.039062 233.085938 61.339844 232.582031 C 61.746094 232.179688 62.148438 231.777344 62.652344 231.375 C 63.15625 230.871094 63.660156 230.46875 64.261719 230.164062 C 64.867188 229.863281 65.570312 229.558594 66.175781 229.359375 C 67.082031 228.957031 67.890625 228.753906 68.796875 228.652344 C 69.703125 228.554688 70.609375 228.554688 71.617188 228.554688 C 72.121094 228.652344 72.621094 228.753906 73.027344 228.753906 C 73.53125 228.753906 73.933594 228.855469 74.4375 228.957031 C 74.738281 228.957031 75.039062 229.058594 75.441406 229.257812 C 76.449219 229.558594 77.660156 229.964844 79.070312 230.367188 C 80.078125 230.871094 80.984375 231.375 81.890625 231.980469 C 82.796875 232.582031 83.601562 233.289062 84.40625 234.09375 C 85.3125 234.898438 86.222656 235.707031 86.925781 236.714844 C 87.632812 237.722656 88.4375 238.730469 89.140625 239.738281 C 89.746094 240.742188 90.25 241.75 90.652344 242.757812 C 91.054688 243.765625 91.558594 244.773438 92.0625 245.78125 C 92.566406 247.089844 92.96875 248.703125 93.472656 250.417969 C 93.675781 251.324219 93.875 252.128906 94.078125 253.035156 C 94.277344 253.941406 94.480469 254.847656 94.683594 255.757812 C 94.882812 256.664062 94.984375 257.46875 95.085938 258.273438 C 95.183594 259.082031 95.183594 259.886719 95.183594 260.792969 C 95.183594 261.097656 95.183594 261.398438 95.285156 261.699219 C 95.183594 261.800781 95.285156 262.101562 95.285156 262.40625 Z M 68.796875 250.617188 L 69.398438 250.316406 C 70.609375 249.8125 71.714844 250.011719 72.523438 250.71875 C 73.429688 251.421875 74.335938 252.230469 75.242188 253.335938 C 76.25 254.246094 77.15625 255.453125 77.960938 257.066406 C 78.164062 257.570312 78.261719 258.074219 78.363281 258.675781 C 78.464844 259.28125 78.363281 259.785156 78.0625 260.390625 C 78.0625 260.59375 78.0625 260.691406 78.164062 260.792969 L 78.261719 260.894531 C 79.574219 261.902344 81.183594 262.910156 82.996094 263.613281 C 83.402344 263.816406 83.703125 263.917969 84.003906 264.019531 C 84.003906 263.714844 83.902344 263.515625 83.902344 263.3125 C 83.902344 262.808594 83.902344 262.40625 83.902344 261.902344 C 83.902344 261.398438 83.804688 260.996094 83.804688 260.492188 C 83.703125 259.988281 83.703125 259.484375 83.703125 258.878906 C 83.703125 258.273438 83.601562 257.769531 83.601562 257.265625 C 83.5 256.761719 83.402344 256.257812 83.300781 255.757812 C 83.199219 255.253906 83.097656 254.75 82.996094 254.246094 C 82.898438 253.742188 82.796875 253.335938 82.796875 253.035156 C 82.695312 252.734375 82.695312 252.332031 82.59375 251.828125 C 82.394531 251.019531 82.191406 250.316406 81.992188 249.609375 C 81.789062 248.90625 81.488281 248.199219 81.386719 247.394531 C 80.582031 245.277344 79.773438 243.261719 78.765625 241.347656 C 77.761719 239.636719 76.550781 238.324219 75.34375 237.316406 C 73.628906 236.109375 71.816406 235.605469 70.003906 236.007812 C 69.097656 236.210938 68.492188 236.613281 68.089844 237.117188 C 67.484375 238.125 67.183594 239.132812 67.082031 240.140625 C 66.980469 241.148438 66.980469 242.15625 67.183594 243.160156 C 67.386719 244.167969 67.484375 245.078125 67.6875 246.082031 C 67.890625 246.789062 68.089844 247.394531 68.191406 247.996094 C 68.292969 248.601562 68.492188 249.308594 68.695312 249.914062 C 68.695312 250.011719 68.695312 250.113281 68.796875 250.113281 C 68.796875 250.417969 68.796875 250.515625 68.796875 250.617188 Z M 74.132812 268.753906 L 73.832031 269.054688 C 73.628906 269.761719 73.429688 270.363281 73.226562 270.96875 C 73.027344 271.574219 72.824219 272.277344 72.621094 272.882812 C 72.421875 273.386719 72.320312 273.890625 72.21875 274.394531 C 72.21875 274.898438 72.121094 275.402344 72.019531 275.90625 C 71.816406 276.410156 71.714844 276.914062 71.617188 277.417969 C 71.617188 277.921875 71.515625 278.425781 71.414062 278.929688 C 71.3125 279.835938 71.210938 280.640625 71.210938 281.449219 C 71.210938 282.253906 71.210938 283.058594 71.3125 283.867188 C 71.414062 284.671875 71.515625 285.375 71.617188 286.082031 C 71.714844 286.789062 71.917969 287.59375 72.320312 288.296875 C 72.621094 289.105469 73.125 289.710938 73.933594 290.214844 C 74.335938 290.414062 74.839844 290.617188 75.644531 290.816406 C 76.753906 291.019531 77.761719 290.714844 78.667969 289.808594 C 79.472656 289.003906 80.078125 288.097656 80.582031 286.886719 C 81.082031 286.082031 81.585938 284.972656 81.992188 283.460938 C 82.191406 282.957031 82.292969 282.457031 82.394531 281.851562 C 82.492188 281.246094 82.59375 280.742188 82.796875 280.136719 L 83.199219 277.519531 C 83.402344 276.8125 83.5 276.207031 83.601562 275.605469 C 83.601562 275 83.703125 274.292969 83.804688 273.691406 L 83.804688 273.085938 C 81.992188 272.683594 80.277344 272.179688 78.667969 271.472656 C 77.054688 270.667969 75.542969 269.761719 74.132812 268.753906 Z M 74.132812 268.753906 " fill-opacity="1" fill-rule="nonzero"/><g clip-path="url(#2de7b33818)"><path fill="#000000" d="M 136.382812 247.292969 C 136.582031 246.6875 136.683594 246.386719 136.683594 246.285156 C 137.1875 244.167969 138.394531 242.757812 140.308594 242.15625 C 143.128906 241.347656 145.445312 241.652344 147.460938 243.0625 C 149.476562 244.167969 150.382812 245.984375 150.082031 248.402344 C 149.878906 249.609375 149.777344 250.820312 149.675781 252.027344 C 149.675781 253.136719 149.476562 254.34375 149.273438 255.65625 C 149.074219 257.066406 148.972656 258.476562 148.871094 259.886719 C 148.769531 261.296875 148.671875 262.605469 148.570312 264.015625 C 148.367188 265.527344 148.265625 267.039062 148.167969 268.449219 C 148.066406 269.859375 148.066406 271.472656 148.265625 273.085938 C 148.367188 272.882812 148.46875 272.78125 148.570312 272.683594 C 148.671875 272.683594 148.769531 272.480469 148.871094 272.277344 C 150.082031 270.363281 151.289062 268.449219 152.496094 266.636719 C 153.707031 264.722656 155.015625 262.910156 156.324219 260.996094 C 157.332031 259.382812 158.441406 257.769531 159.449219 256.359375 C 160.457031 254.847656 161.5625 253.335938 162.570312 251.828125 C 163.175781 251.019531 163.878906 250.617188 164.886719 250.417969 C 165.792969 250.316406 166.699219 250.515625 167.507812 251.222656 C 168.007812 251.726562 168.3125 252.332031 168.511719 253.136719 C 168.714844 253.941406 168.511719 254.648438 168.109375 255.253906 C 167.605469 256.058594 167.203125 256.761719 166.699219 257.570312 C 166.296875 258.375 165.792969 259.082031 165.289062 259.886719 C 163.679688 262.203125 162.066406 264.519531 160.355469 266.839844 C 158.742188 269.15625 157.132812 271.472656 155.417969 273.890625 L 148.46875 284.269531 C 148.167969 284.773438 148.066406 285.175781 148.066406 285.578125 C 147.863281 286.789062 147.765625 287.996094 147.664062 289.207031 C 147.5625 290.3125 147.5625 291.523438 147.460938 292.832031 C 147.261719 294.140625 147.058594 295.554688 146.957031 296.964844 C 146.859375 298.375 146.65625 299.886719 146.453125 301.296875 C 146.253906 302.402344 146.152344 303.613281 146.050781 304.820312 C 145.949219 306.03125 145.851562 307.238281 145.648438 308.347656 C 145.449219 309.355469 145.246094 310.363281 145.144531 311.269531 C 145.042969 312.175781 144.84375 313.183594 144.640625 314.191406 C 144.441406 315.402344 144.238281 316.609375 144.039062 317.820312 C 143.835938 318.925781 143.632812 320.136719 143.332031 321.445312 C 143.03125 322.753906 142.726562 324.167969 142.425781 325.578125 C 142.125 326.988281 141.820312 328.398438 141.519531 329.707031 C 141.21875 330.714844 141.015625 331.621094 140.714844 332.527344 C 140.511719 333.4375 140.210938 334.34375 139.90625 335.351562 C 139.304688 337.265625 138.699219 339.179688 137.992188 341.195312 C 137.289062 343.109375 136.582031 345.121094 135.675781 347.035156 C 134.570312 350.058594 133.058594 352.679688 131.347656 355.097656 C 130.339844 356.40625 129.332031 357.714844 128.222656 358.925781 C 127.117188 360.136719 125.804688 361.140625 124.394531 362.050781 C 123.488281 362.753906 122.382812 363.15625 121.070312 363.460938 C 120.265625 363.660156 119.5625 363.863281 118.65625 364.0625 C 117.847656 364.265625 117.042969 364.367188 116.238281 364.367188 C 112.8125 364.367188 109.789062 363.054688 107.171875 360.4375 C 106.164062 359.429688 105.257812 358.421875 104.652344 357.3125 C 104.050781 356.207031 103.445312 354.894531 103.042969 353.585938 C 102.539062 352.277344 102.136719 350.867188 101.933594 349.453125 C 101.632812 348.042969 101.429688 346.632812 101.230469 345.222656 C 101.128906 344.214844 101.027344 343.109375 100.925781 342.101562 C 100.824219 340.992188 100.925781 339.984375 101.027344 338.976562 C 101.128906 337.769531 101.230469 336.558594 101.328125 335.351562 C 101.429688 334.242188 101.53125 333.03125 101.734375 331.925781 C 101.832031 331.320312 101.933594 330.714844 102.035156 330.109375 C 102.136719 329.507812 102.234375 328.902344 102.4375 328.296875 C 102.941406 326.382812 103.546875 324.46875 104.453125 322.65625 C 105.359375 320.839844 106.265625 319.027344 107.375 317.316406 C 109.890625 313.585938 112.710938 310.160156 115.835938 307.140625 C 117.042969 306.03125 118.351562 304.820312 119.5625 303.714844 C 120.769531 302.605469 122.078125 301.496094 123.289062 300.488281 C 124.296875 299.582031 125.203125 298.777344 126.109375 297.972656 C 127.015625 297.164062 127.921875 296.359375 128.929688 295.453125 L 132.253906 292.128906 C 132.554688 291.925781 132.757812 291.523438 132.957031 290.816406 C 133.058594 289.304688 133.160156 287.792969 133.257812 286.183594 C 133.359375 284.671875 133.460938 283.058594 133.664062 281.449219 L 133.664062 280.339844 C 133.359375 280.640625 133.160156 280.84375 133.058594 281.042969 C 131.75 282.859375 130.4375 284.570312 129.128906 286.285156 C 127.820312 287.996094 126.410156 289.609375 124.898438 291.21875 C 123.085938 293.132812 121.171875 294.746094 119.15625 295.957031 C 117.847656 296.660156 116.4375 297.0625 115.128906 297.367188 C 113.820312 297.566406 112.410156 297.566406 111 297.164062 C 108.179688 296.558594 105.964844 295.148438 104.25 292.832031 C 103.445312 291.824219 102.839844 290.714844 102.335938 289.507812 C 101.832031 288.398438 101.328125 287.191406 100.925781 285.878906 C 100.421875 284.46875 100.121094 282.957031 99.820312 281.546875 C 99.617188 280.136719 99.316406 278.625 99.214844 277.113281 C 99.113281 275.402344 99.113281 273.691406 99.214844 271.976562 C 99.316406 270.265625 99.515625 268.652344 99.917969 267.039062 C 100.625 262.605469 101.933594 258.375 103.847656 254.34375 C 105.359375 250.917969 107.273438 247.898438 109.589844 245.378906 C 110.496094 244.472656 111.300781 243.765625 112.207031 242.960938 C 113.113281 242.15625 114.121094 241.652344 115.128906 241.148438 C 116.238281 240.742188 117.445312 240.441406 118.554688 240.238281 C 120.972656 239.835938 123.289062 239.835938 125.605469 240.238281 C 128.625 240.84375 131.347656 242.253906 133.5625 244.574219 C 134.066406 245.074219 134.46875 245.578125 134.769531 245.984375 C 135.476562 246.285156 135.878906 246.789062 136.382812 247.292969 Z M 131.75 303.714844 C 131.546875 303.914062 131.445312 304.015625 131.347656 304.117188 C 131.246094 304.117188 131.144531 304.21875 131.042969 304.316406 C 129.128906 305.828125 127.214844 307.441406 125.300781 308.953125 C 123.386719 310.566406 121.574219 312.277344 119.964844 314.191406 C 116.742188 317.515625 114.121094 321.144531 112.207031 325.175781 C 110.292969 329.101562 109.285156 333.132812 109.1875 337.363281 C 109.085938 338.875 109.085938 340.386719 109.085938 341.898438 C 109.085938 343.410156 109.285156 344.921875 109.589844 346.433594 C 109.789062 347.339844 109.992188 348.144531 110.195312 349.050781 C 110.394531 349.957031 110.695312 350.765625 111.101562 351.46875 C 111.402344 352.074219 111.703125 352.578125 112.007812 353.082031 C 112.308594 353.585938 112.710938 354.089844 113.113281 354.59375 C 113.921875 355.199219 114.726562 355.199219 115.53125 354.695312 C 116.4375 354.191406 117.246094 353.484375 117.949219 352.578125 C 118.753906 351.46875 119.359375 350.460938 120.066406 349.253906 C 120.667969 348.144531 121.273438 346.9375 121.675781 345.625 C 122.683594 343.308594 123.589844 340.992188 124.296875 338.675781 C 125 336.359375 125.605469 333.9375 126.308594 331.421875 L 128.023438 324.46875 C 128.324219 323.160156 128.625 321.75 128.929688 320.339844 C 129.230469 318.925781 129.53125 317.417969 129.835938 316.003906 L 131.144531 308.652344 C 131.246094 308.148438 131.34375 307.742188 131.34375 307.441406 C 131.34375 307.140625 131.445312 306.738281 131.546875 306.332031 C 131.648438 305.828125 131.648438 305.425781 131.648438 304.921875 C 131.648438 304.621094 131.648438 304.21875 131.75 303.714844 Z M 113.515625 278.625 C 113.617188 279.128906 113.617188 279.734375 113.617188 280.539062 C 113.617188 281.347656 113.71875 282.152344 113.921875 283.058594 C 114.121094 283.664062 114.324219 284.167969 114.523438 284.671875 C 114.726562 285.175781 114.925781 285.78125 115.128906 286.285156 C 115.53125 287.191406 116.136719 287.292969 116.839844 286.6875 C 117.246094 286.285156 117.648438 285.980469 117.949219 285.578125 C 118.351562 285.277344 118.753906 284.875 119.058594 284.46875 C 120.265625 282.957031 121.476562 281.449219 122.683594 279.835938 C 123.792969 278.324219 124.898438 276.710938 126.007812 275.101562 C 128.828125 270.769531 131.347656 266.132812 133.761719 260.996094 C 134.167969 260.390625 134.367188 259.988281 134.367188 259.683594 C 134.46875 259.179688 134.46875 258.777344 134.46875 258.273438 C 134.46875 257.769531 134.46875 257.367188 134.570312 256.863281 C 134.667969 256.460938 134.570312 255.957031 134.167969 255.152344 C 132.957031 252.933594 131.144531 251.121094 128.726562 249.8125 C 127.015625 248.90625 125.402344 248.90625 123.992188 250.113281 C 123.589844 250.417969 123.1875 250.71875 122.886719 251.019531 C 122.480469 251.324219 122.179688 251.726562 121.878906 252.128906 C 120.871094 253.136719 120.164062 254.246094 119.460938 255.453125 C 118.855469 256.5625 118.25 257.769531 117.847656 259.082031 C 117.042969 260.894531 116.4375 262.707031 115.933594 264.621094 C 115.429688 266.535156 114.925781 268.351562 114.425781 270.265625 C 113.921875 272.984375 113.617188 275.703125 113.515625 278.625 Z M 113.515625 278.625 " fill-opacity="1" fill-rule="nonzero"/></g><path fill="#000000" d="M 169.015625 276.511719 C 169.015625 276.710938 169.015625 276.8125 168.917969 276.914062 C 168.917969 277.015625 168.816406 277.117188 168.816406 277.316406 C 168.816406 278.222656 168.816406 279.03125 168.816406 279.835938 C 168.816406 280.640625 168.816406 281.449219 168.917969 282.355469 C 169.117188 284.066406 169.417969 285.679688 169.824219 287.292969 C 170.023438 287.996094 170.226562 288.601562 170.425781 289.304688 C 170.628906 290.011719 171.03125 290.617188 171.535156 291.21875 C 172.339844 292.429688 173.347656 293.234375 174.558594 293.539062 C 175.363281 293.839844 176.167969 293.839844 177.175781 293.636719 C 178.183594 293.4375 179.191406 293.136719 179.996094 292.730469 C 180.800781 292.328125 181.609375 291.824219 182.414062 291.320312 C 183.421875 290.617188 184.429688 289.910156 185.335938 289.105469 C 186.242188 288.296875 187.046875 287.390625 187.851562 286.484375 C 189.566406 284.671875 190.976562 282.65625 192.183594 280.441406 C 193.894531 277.71875 195.40625 274.898438 196.617188 271.976562 L 199.234375 265.933594 C 199.4375 265.328125 199.636719 264.824219 199.941406 264.21875 C 200.242188 263.613281 200.441406 263.109375 200.644531 262.507812 C 200.945312 261.902344 201.25 261.398438 201.550781 260.792969 C 201.851562 260.1875 202.054688 259.585938 202.257812 258.878906 L 203.566406 255.855469 C 203.867188 254.949219 204.371094 254.34375 205.175781 253.941406 C 205.984375 253.539062 206.789062 253.640625 207.695312 254.042969 C 208.703125 254.546875 209.40625 255.253906 209.710938 256.160156 C 209.8125 256.761719 209.710938 257.367188 209.40625 258.074219 C 209.003906 258.980469 208.703125 259.785156 208.402344 260.691406 C 208.097656 261.597656 207.796875 262.507812 207.394531 263.414062 C 206.992188 264.320312 206.6875 265.125 206.285156 265.933594 C 205.984375 266.738281 205.582031 267.542969 205.175781 268.449219 C 204.773438 269.257812 204.472656 269.960938 204.070312 270.667969 C 203.765625 271.371094 203.464844 272.179688 203.164062 272.882812 C 202.960938 273.285156 202.859375 273.691406 202.761719 273.992188 C 202.660156 274.394531 202.558594 274.796875 202.355469 275.101562 C 201.652344 276.613281 201.046875 278.121094 200.34375 279.535156 C 199.636719 280.945312 198.933594 282.355469 198.027344 283.664062 C 197.320312 284.773438 196.617188 285.878906 195.910156 286.988281 C 195.105469 288.097656 194.398438 289.105469 193.59375 290.113281 C 191.882812 292.128906 189.867188 294.042969 187.550781 295.855469 C 185.535156 297.367188 183.519531 298.574219 181.40625 299.480469 C 180.800781 299.785156 180.296875 299.984375 179.695312 300.085938 C 179.089844 300.1875 178.484375 300.390625 177.78125 300.589844 C 177.074219 300.691406 176.46875 300.792969 175.867188 300.792969 C 175.261719 300.792969 174.558594 300.894531 173.75 300.894531 C 171.835938 300.894531 169.921875 300.488281 168.109375 299.785156 C 165.59375 298.777344 163.277344 297.164062 161.160156 295.050781 C 160.355469 294.140625 159.648438 293.234375 158.945312 292.328125 C 158.238281 291.320312 157.636719 290.3125 157.132812 289.304688 C 156.929688 288.800781 156.726562 288.296875 156.527344 287.796875 C 156.324219 287.292969 156.125 286.789062 155.921875 286.285156 C 155.621094 285.578125 155.417969 284.972656 155.316406 284.269531 C 155.21875 283.5625 155.015625 282.957031 154.816406 282.253906 C 154.511719 280.742188 154.410156 279.128906 154.410156 277.519531 C 154.410156 276.710938 154.410156 276.007812 154.410156 275.101562 C 154.410156 274.292969 154.511719 273.488281 154.511719 272.683594 L 154.914062 269.660156 C 155.015625 269.15625 155.117188 268.753906 155.117188 268.449219 C 155.21875 268.148438 155.21875 267.746094 155.316406 267.34375 C 155.417969 266.839844 155.519531 266.4375 155.519531 266.132812 C 155.621094 265.832031 155.621094 265.429688 155.722656 264.925781 C 155.921875 264.421875 156.023438 263.917969 156.125 263.515625 C 156.226562 263.011719 156.324219 262.507812 156.527344 262.101562 C 156.828125 260.59375 157.230469 259.179688 157.835938 257.972656 C 158.039062 257.265625 158.238281 256.664062 158.441406 256.058594 C 158.640625 255.453125 158.945312 254.847656 159.246094 254.246094 C 159.851562 252.933594 160.457031 251.625 161.160156 250.417969 C 161.867188 249.207031 162.570312 248.097656 163.476562 246.992188 C 164.382812 245.882812 165.289062 244.773438 166.195312 243.867188 C 168.007812 241.851562 170.125 240.339844 172.542969 239.433594 C 173.148438 239.234375 173.648438 239.03125 174.253906 238.828125 C 174.859375 238.628906 175.464844 238.527344 176.167969 238.425781 C 176.972656 238.226562 177.679688 238.125 178.484375 238.023438 C 179.289062 238.023438 179.996094 238.023438 180.800781 238.226562 C 184.226562 238.730469 186.945312 240.339844 188.859375 243.261719 C 189.160156 243.765625 189.363281 244.269531 189.664062 244.773438 C 189.867188 245.277344 190.070312 245.78125 190.269531 246.285156 C 190.671875 247.292969 190.976562 248.300781 191.175781 249.308594 C 191.277344 249.8125 191.378906 250.214844 191.378906 250.71875 C 191.378906 251.121094 191.480469 251.625 191.480469 252.128906 C 191.480469 252.734375 191.480469 253.238281 191.378906 253.839844 C 191.277344 254.445312 191.277344 254.949219 191.175781 255.453125 C 191.175781 255.957031 191.074219 256.359375 191.074219 256.761719 C 190.976562 257.167969 190.875 257.570312 190.773438 258.074219 C 190.371094 259.988281 189.765625 262.003906 188.757812 264.015625 C 187.652344 266.234375 186.242188 268.148438 184.628906 269.960938 C 183.421875 271.371094 181.707031 272.78125 179.59375 273.992188 C 177.679688 275 175.96875 275.605469 174.457031 276.007812 C 173.046875 276.410156 171.433594 276.613281 169.519531 276.613281 C 169.417969 276.613281 169.320312 276.613281 169.320312 276.710938 C 169.21875 276.511719 169.117188 276.511719 169.015625 276.511719 Z M 169.015625 268.855469 C 169.320312 268.855469 169.417969 268.855469 169.417969 268.753906 C 170.226562 268.449219 171.03125 267.945312 171.835938 267.34375 C 172.84375 266.535156 173.75 265.628906 174.457031 264.621094 C 175.160156 263.613281 175.96875 262.507812 176.671875 261.5 C 177.679688 259.886719 178.382812 258.273438 178.988281 256.761719 C 179.695312 255.253906 180.199219 253.742188 180.601562 252.429688 C 180.800781 251.925781 180.902344 251.523438 181.003906 251.019531 C 181.003906 250.617188 181.105469 250.113281 181.203125 249.609375 L 181.203125 248.601562 L 180.800781 248.601562 C 180.5 248.703125 180.199219 248.804688 179.894531 248.804688 C 179.59375 248.90625 179.289062 249.003906 178.988281 249.207031 C 177.679688 250.113281 176.570312 250.917969 175.867188 251.828125 C 174.355469 253.640625 173.148438 255.65625 172.238281 257.769531 C 171.132812 260.089844 170.328125 262.304688 169.824219 264.519531 C 169.722656 265.023438 169.621094 265.527344 169.621094 266.132812 C 169.621094 266.738281 169.417969 267.242188 169.21875 267.746094 C 169.21875 268.046875 169.117188 268.449219 169.015625 268.855469 Z M 169.015625 268.855469 " fill-opacity="1" fill-rule="nonzero"/><path fill="#000000" d="M 201.851562 222.710938 C 201.351562 222.808594 200.945312 222.910156 200.441406 222.910156 C 200.039062 222.910156 199.535156 223.011719 199.03125 223.113281 C 197.925781 223.3125 196.714844 223.515625 195.609375 223.617188 C 194.5 223.71875 193.292969 223.917969 192.183594 224.121094 C 191.378906 224.320312 190.671875 224.421875 189.96875 224.523438 C 189.261719 224.523438 188.558594 224.625 187.75 224.722656 C 186.84375 224.824219 186.039062 224.824219 185.234375 224.824219 C 184.429688 224.824219 183.621094 224.824219 182.816406 224.824219 C 181.203125 224.824219 179.695312 224.722656 178.183594 224.421875 C 177.074219 224.121094 175.96875 223.816406 174.960938 223.3125 C 173.953125 222.910156 173.046875 222.304688 172.140625 221.5 C 170.828125 220.191406 170.023438 218.578125 169.722656 216.867188 C 169.320312 215.253906 169.519531 213.441406 170.125 211.527344 L 170.527344 209.8125 C 171.03125 208.703125 171.9375 208 173.246094 207.796875 C 174.65625 207.796875 175.765625 208.300781 176.371094 209.410156 C 176.875 210.316406 176.972656 211.023438 176.773438 211.726562 C 176.570312 212.230469 176.46875 212.632812 176.371094 213.136719 C 176.269531 213.640625 176.167969 214.042969 175.96875 214.546875 C 175.765625 215.554688 176.066406 216.460938 176.972656 216.964844 C 177.175781 217.269531 177.476562 217.46875 177.980469 217.570312 C 179.089844 217.972656 180.5 218.175781 182.109375 218.175781 C 183.21875 218.175781 184.429688 218.175781 185.636719 218.074219 C 186.84375 218.074219 188.054688 217.972656 189.261719 217.875 C 190.070312 217.875 190.773438 217.875 191.480469 217.773438 C 192.183594 217.671875 192.988281 217.570312 193.695312 217.371094 C 194.5 217.269531 195.207031 217.167969 195.808594 217.066406 C 196.515625 216.964844 197.21875 216.867188 197.925781 216.765625 C 198.730469 216.5625 199.4375 216.460938 200.039062 216.363281 C 200.644531 216.261719 201.351562 216.160156 202.15625 215.957031 C 202.15625 215.859375 202.15625 215.859375 202.257812 215.859375 C 202.355469 215.355469 202.457031 214.851562 202.457031 214.449219 C 202.457031 213.945312 202.558594 213.441406 202.558594 213.035156 L 202.960938 207.394531 C 203.0625 206.789062 203.0625 206.285156 203.0625 205.683594 C 203.0625 205.078125 203.0625 204.574219 203.0625 204.070312 C 203.261719 203.0625 203.566406 202.15625 204.070312 201.449219 C 204.976562 200.441406 206.183594 200.140625 207.695312 200.34375 C 208.300781 200.441406 208.804688 200.644531 209.207031 200.847656 C 209.609375 201.046875 210.113281 201.351562 210.617188 201.753906 C 212.027344 202.761719 213.335938 203.96875 214.542969 205.179688 C 215.148438 206.085938 215.351562 206.890625 215.25 207.597656 C 215.148438 208.605469 215.148438 209.511719 215.148438 210.316406 C 215.148438 211.121094 215.046875 212.128906 215.046875 213.035156 L 215.046875 213.441406 C 215.453125 213.339844 215.753906 213.339844 216.054688 213.339844 C 216.359375 213.339844 216.660156 213.339844 216.960938 213.238281 C 217.769531 213.136719 218.472656 213.035156 219.277344 212.9375 C 220.085938 212.835938 220.789062 212.734375 221.59375 212.535156 C 222.601562 212.332031 223.609375 212.128906 224.617188 211.929688 C 225.523438 211.726562 226.53125 211.527344 227.539062 211.324219 C 228.445312 211.222656 229.25 211.121094 230.15625 211.023438 C 231.0625 210.921875 231.871094 210.820312 232.777344 210.71875 C 233.683594 210.519531 234.691406 210.417969 235.597656 210.316406 C 236.503906 210.316406 237.410156 210.113281 238.417969 209.914062 L 240.332031 209.914062 C 241.539062 209.914062 242.746094 209.914062 243.957031 209.8125 C 245.164062 209.8125 246.375 209.8125 247.582031 209.914062 C 249.195312 210.113281 250.804688 210.316406 252.519531 210.617188 C 254.128906 210.921875 255.742188 211.425781 257.253906 212.03125 C 258.863281 212.835938 260.273438 213.742188 261.484375 214.851562 C 262.691406 215.957031 263.699219 217.371094 264.402344 218.980469 C 264.707031 219.585938 264.808594 220.292969 264.808594 221.097656 C 264.808594 221.902344 264.304688 222.609375 263.597656 223.011719 C 262.792969 223.515625 262.085938 223.714844 261.28125 223.714844 C 260.476562 223.714844 259.871094 223.414062 259.265625 222.808594 C 258.863281 222.40625 258.664062 222.105469 258.5625 221.800781 C 257.554688 219.988281 256.042969 218.679688 253.929688 217.875 C 252.820312 217.371094 251.8125 217.066406 250.707031 216.964844 C 249.597656 216.867188 248.488281 216.664062 247.28125 216.5625 C 246.476562 216.460938 245.769531 216.363281 244.863281 216.363281 C 244.058594 216.363281 243.25 216.261719 242.445312 216.261719 C 241.539062 216.261719 240.734375 216.261719 239.925781 216.363281 C 239.121094 216.363281 238.316406 216.460938 237.410156 216.5625 C 236.402344 216.664062 235.496094 216.765625 234.691406 216.867188 C 233.785156 216.964844 232.875 217.066406 231.96875 217.167969 C 231.164062 217.371094 230.460938 217.46875 229.652344 217.570312 C 228.847656 217.570312 228.144531 217.773438 227.335938 217.972656 C 226.328125 218.175781 225.324219 218.375 224.316406 218.476562 C 223.308594 218.578125 222.402344 218.78125 221.394531 218.980469 C 220.386719 219.183594 219.480469 219.382812 218.675781 219.484375 C 217.769531 219.585938 216.960938 219.789062 216.054688 219.988281 C 215.855469 220.089844 215.550781 220.089844 215.148438 220.089844 C 214.949219 220.59375 214.847656 221.097656 214.847656 221.5 C 214.847656 222.003906 214.746094 222.507812 214.746094 222.910156 C 214.542969 223.617188 214.445312 224.21875 214.34375 224.925781 C 214.242188 225.632812 214.242188 226.234375 214.140625 226.941406 C 213.941406 227.847656 213.839844 228.652344 213.738281 229.558594 C 213.636719 230.46875 213.539062 231.273438 213.4375 232.179688 C 213.234375 232.984375 213.132812 233.691406 213.035156 234.496094 C 213.035156 235.304688 212.933594 236.007812 212.832031 236.8125 C 212.730469 237.117188 212.730469 237.417969 212.730469 237.722656 C 212.730469 238.023438 212.730469 238.324219 212.632812 238.628906 C 212.53125 239.332031 212.429688 239.9375 212.429688 240.644531 C 212.429688 241.347656 212.328125 242.054688 212.226562 242.757812 L 211.320312 248.804688 C 211.222656 249.710938 211.121094 250.515625 211.121094 251.324219 C 211.121094 252.128906 211.019531 252.933594 210.917969 253.742188 C 210.71875 254.648438 210.617188 255.453125 210.515625 256.359375 C 210.515625 257.265625 210.414062 258.074219 210.3125 258.980469 C 210.214844 259.28125 210.214844 259.585938 210.214844 259.886719 C 210.214844 260.1875 210.214844 260.492188 210.113281 260.894531 L 209.710938 267.34375 C 209.609375 268.449219 209.507812 269.355469 209.507812 270.265625 C 209.507812 271.171875 209.40625 272.179688 209.308594 273.1875 L 209.308594 279.332031 C 209.308594 280.136719 209.308594 280.84375 209.308594 281.75 C 209.308594 282.554688 209.308594 283.363281 209.40625 284.167969 C 209.507812 285.175781 209.609375 286.183594 209.8125 287.089844 C 209.910156 287.996094 210.214844 288.902344 210.617188 289.910156 C 210.816406 290.414062 211.222656 291.019531 211.722656 291.824219 C 212.226562 292.632812 212.730469 292.632812 213.132812 291.824219 C 213.539062 291.320312 213.941406 290.816406 214.242188 290.3125 C 214.644531 289.808594 215.046875 289.207031 215.351562 288.703125 C 216.457031 286.886719 217.566406 285.074219 218.472656 283.261719 C 219.480469 281.449219 220.386719 279.53125 221.394531 277.617188 C 222.300781 275.703125 223.105469 273.789062 224.011719 271.976562 C 224.917969 270.164062 225.726562 268.25 226.53125 266.335938 C 227.4375 264.421875 228.242188 262.507812 228.949219 260.59375 C 229.753906 258.675781 230.460938 256.761719 231.265625 254.847656 C 231.464844 254.34375 231.667969 253.941406 231.871094 253.539062 C 232.070312 253.136719 232.273438 252.734375 232.472656 252.230469 C 232.675781 251.625 233.078125 251.222656 233.882812 250.917969 C 234.589844 250.617188 235.292969 250.617188 236.101562 250.820312 C 237.105469 251.121094 237.710938 251.726562 238.113281 252.53125 C 238.515625 253.335938 238.515625 254.34375 238.113281 255.253906 C 237.8125 256.058594 237.511719 256.761719 237.207031 257.46875 C 236.90625 258.175781 236.605469 258.980469 236.300781 259.683594 C 235.796875 260.894531 235.292969 262.203125 234.890625 263.414062 C 234.386719 264.621094 233.882812 265.933594 233.480469 267.140625 L 231.367188 272.78125 C 230.660156 274.195312 230.054688 275.703125 229.453125 277.113281 C 228.847656 278.527344 228.144531 280.035156 227.539062 281.546875 C 226.832031 282.859375 226.230469 284.269531 225.625 285.578125 C 225.019531 286.886719 224.316406 288.296875 223.710938 289.609375 C 222.804688 291.21875 222 292.832031 221.09375 294.34375 C 220.183594 295.855469 219.179688 297.367188 218.171875 298.777344 C 216.960938 300.390625 215.550781 301.699219 214.140625 302.503906 C 212.632812 303.410156 211.019531 303.714844 209.207031 303.210938 C 208.199219 303.109375 207.191406 302.808594 206.183594 302.304688 C 205.378906 301.898438 204.671875 301.394531 204.070312 300.894531 C 203.363281 300.289062 202.761719 299.683594 202.15625 298.976562 C 201.046875 297.46875 200.140625 295.753906 199.535156 293.941406 C 198.832031 292.027344 198.429688 289.910156 198.125 287.492188 C 197.925781 286.183594 197.722656 284.875 197.625 283.5625 C 197.523438 282.355469 197.421875 281.042969 197.421875 279.632812 C 197.320312 278.023438 197.320312 276.410156 197.320312 274.695312 C 197.320312 273.085938 197.320312 271.472656 197.320312 269.761719 C 197.421875 268.148438 197.523438 266.535156 197.625 264.925781 C 197.722656 263.3125 197.824219 261.699219 197.925781 260.089844 C 198.027344 259.082031 198.125 257.972656 198.125 256.964844 C 198.226562 255.957031 198.226562 254.847656 198.328125 253.839844 C 198.53125 252.835938 198.628906 251.925781 198.730469 251.121094 C 198.832031 250.214844 198.933594 249.410156 199.132812 248.5 C 199.132812 248.199219 199.132812 247.898438 199.132812 247.59375 C 199.132812 247.292969 199.234375 246.992188 199.234375 246.6875 L 199.636719 241.953125 C 199.839844 241.148438 199.941406 240.441406 200.039062 239.734375 C 200.140625 239.03125 200.242188 238.324219 200.441406 237.519531 C 200.441406 236.714844 200.542969 236.210938 200.542969 235.808594 C 200.644531 235 200.746094 234.296875 200.746094 233.488281 C 200.746094 232.683594 200.847656 231.976562 200.945312 231.171875 C 201.148438 230.164062 201.25 229.054688 201.351562 228.050781 C 201.449219 227.042969 201.550781 226.035156 201.753906 224.925781 C 201.753906 224.019531 201.753906 223.414062 201.851562 223.011719 C 201.953125 222.910156 201.953125 222.808594 201.851562 222.710938 Z M 201.851562 222.710938 " fill-opacity="1" fill-rule="nonzero"/><path fill="#000000" d="M 255.941406 258.980469 C 255.238281 259.28125 254.734375 259.585938 254.230469 259.988281 C 253.726562 260.390625 253.222656 260.792969 252.820312 261.097656 C 251.8125 262.101562 250.804688 263.3125 250 264.519531 C 249.195312 265.730469 248.488281 267.039062 247.785156 268.351562 C 246.878906 270.0625 246.171875 271.777344 245.566406 273.488281 C 244.964844 275.199219 244.359375 277.015625 243.957031 278.828125 C 243.753906 279.632812 243.65625 280.441406 243.554688 281.246094 C 243.453125 282.152344 243.351562 282.957031 243.152344 283.664062 C 242.949219 284.46875 242.847656 285.175781 242.746094 285.878906 C 242.648438 286.585938 242.546875 287.390625 242.34375 288.097656 C 241.941406 290.113281 241.941406 292.128906 242.246094 294.242188 C 242.34375 295.351562 242.445312 296.558594 242.648438 297.667969 C 242.746094 298.777344 242.949219 299.984375 243.152344 301.09375 C 243.351562 302.503906 243.453125 304.015625 243.554688 305.425781 C 243.65625 306.835938 243.554688 308.347656 243.453125 309.757812 C 243.453125 310.261719 243.351562 310.664062 243.351562 310.867188 C 243.050781 311.574219 242.746094 311.976562 242.34375 312.175781 C 241.035156 312.882812 239.726562 313.183594 238.617188 313.183594 C 237.609375 312.984375 236.703125 312.679688 236 312.175781 C 234.890625 311.371094 234.085938 310.464844 233.378906 309.457031 C 232.675781 308.449219 232.070312 307.339844 231.566406 306.132812 C 230.964844 305.023438 230.558594 303.816406 230.15625 302.605469 C 229.753906 301.394531 229.351562 300.1875 229.050781 298.976562 C 228.242188 296.359375 227.738281 293.839844 227.335938 291.21875 C 226.230469 285.679688 225.625 280.035156 225.625 274.394531 C 225.523438 273.085938 225.523438 271.773438 225.523438 270.464844 C 225.523438 269.15625 225.523438 267.847656 225.523438 266.535156 C 225.523438 264.722656 225.523438 262.910156 225.625 261.09375 C 225.625 259.28125 225.726562 257.46875 225.824219 255.65625 C 225.925781 254.042969 226.027344 252.429688 226.128906 250.820312 C 226.230469 249.207031 226.328125 247.59375 226.53125 245.984375 C 226.632812 244.976562 226.734375 243.96875 226.832031 243.0625 C 226.933594 242.15625 227.035156 241.148438 227.234375 240.140625 C 227.4375 239.332031 227.539062 238.527344 227.640625 237.722656 C 227.738281 236.816406 227.839844 236.007812 228.042969 235.101562 C 228.34375 233.488281 228.644531 231.878906 229.050781 230.367188 C 229.453125 228.855469 229.855469 227.34375 230.359375 225.730469 C 231.367188 222.304688 232.675781 218.878906 233.984375 215.65625 C 235.394531 212.433594 237.105469 209.207031 239.121094 206.1875 C 240.128906 204.574219 241.335938 203.0625 242.648438 201.652344 C 243.957031 200.242188 245.367188 199.03125 247.078125 198.023438 C 248.1875 197.320312 249.394531 196.816406 250.605469 196.3125 C 251.8125 195.808594 253.023438 195.507812 254.433594 195.304688 C 256.546875 194.902344 258.664062 195.003906 260.777344 195.605469 C 264.304688 196.515625 267.023438 198.328125 268.835938 201.25 C 269.640625 202.257812 270.144531 203.363281 270.546875 204.472656 C 270.949219 205.582031 271.253906 206.789062 271.453125 208 C 271.757812 209.613281 271.855469 211.222656 271.757812 212.632812 C 271.65625 214.144531 271.453125 215.65625 271.050781 217.167969 C 270.546875 219.183594 269.945312 221.097656 269.136719 223.011719 C 268.332031 224.925781 267.425781 226.738281 266.417969 228.554688 C 265.007812 231.070312 263.394531 233.390625 261.582031 235.605469 C 259.769531 237.820312 257.957031 239.9375 256.042969 242.054688 C 254.433594 243.765625 252.71875 245.480469 251.007812 246.992188 C 249.292969 248.601562 247.480469 250.214844 245.667969 251.828125 C 244.761719 252.53125 243.957031 253.136719 243.152344 253.742188 C 242.34375 254.34375 241.539062 255.050781 240.632812 255.65625 C 240.332031 255.957031 240.230469 256.257812 240.230469 256.5625 C 240.230469 256.964844 240.230469 257.265625 240.128906 257.570312 C 240.128906 257.871094 240.027344 258.175781 240.027344 258.578125 L 240.027344 264.21875 C 240.230469 263.917969 240.429688 263.714844 240.632812 263.515625 C 241.640625 262.003906 242.746094 260.492188 243.957031 259.082031 C 245.0625 257.671875 246.375 256.359375 247.683594 255.152344 C 249.597656 253.238281 251.710938 251.625 253.828125 250.414062 C 254.835938 249.914062 255.84375 249.710938 256.847656 249.609375 C 257.855469 249.609375 258.863281 249.609375 259.871094 249.8125 C 262.289062 250.417969 264.203125 251.625 265.8125 253.4375 C 266.214844 254.042969 266.519531 254.546875 266.921875 255.152344 C 267.222656 255.757812 267.527344 256.359375 267.726562 257.066406 C 268.535156 259.382812 268.9375 262.003906 269.136719 264.824219 C 269.339844 268.046875 269.136719 271.273438 268.734375 274.496094 C 268.632812 275.503906 268.535156 276.410156 268.433594 277.214844 C 268.332031 278.121094 268.230469 279.03125 268.03125 279.9375 C 267.828125 280.84375 267.726562 281.648438 267.625 282.554688 C 267.527344 283.460938 267.425781 284.371094 267.222656 285.175781 C 267.023438 286.183594 266.820312 287.089844 266.71875 287.996094 C 266.621094 288.902344 266.417969 289.910156 266.214844 290.917969 C 266.015625 292.027344 265.8125 293.234375 265.613281 294.546875 C 265.410156 295.753906 265.109375 296.964844 264.804688 298.171875 C 264.503906 299.785156 264.304688 301.398438 264.304688 302.808594 C 264.203125 304.316406 264.304688 305.828125 264.402344 307.441406 C 264.402344 307.84375 264.402344 308.246094 264.503906 308.550781 C 264.503906 308.953125 264.605469 309.355469 264.707031 309.859375 C 264.707031 310.0625 264.707031 310.160156 264.804688 310.261719 C 264.804688 310.363281 264.90625 310.464844 265.007812 310.664062 C 265.511719 310.0625 265.914062 309.558594 266.316406 308.953125 C 266.71875 308.347656 267.125 307.84375 267.425781 307.238281 C 268.03125 306.132812 268.535156 304.921875 269.035156 303.816406 C 269.539062 302.707031 270.144531 301.597656 270.648438 300.390625 C 270.949219 299.683594 271.253906 299.078125 271.554688 298.476562 C 271.855469 297.871094 272.160156 297.164062 272.460938 296.558594 C 273.066406 295.453125 273.570312 294.242188 274.175781 293.136719 C 274.777344 292.027344 275.28125 290.816406 275.785156 289.710938 C 276.691406 287.796875 277.496094 285.878906 278.40625 283.867188 C 279.3125 281.851562 280.117188 279.9375 280.820312 278.023438 C 281.324219 277.015625 281.726562 275.90625 282.132812 274.898438 C 282.535156 273.890625 282.9375 272.882812 283.441406 271.777344 C 283.945312 270.667969 284.449219 269.457031 284.953125 268.351562 C 285.457031 267.242188 285.957031 266.132812 286.460938 264.925781 L 289.082031 258.878906 C 289.484375 257.972656 289.785156 256.964844 290.089844 256.160156 C 290.390625 255.253906 290.691406 254.445312 291.097656 253.539062 L 291.5 252.230469 C 291.902344 251.324219 292.40625 250.71875 293.210938 250.417969 C 294.015625 250.113281 294.824219 250.011719 295.628906 250.316406 C 296.433594 250.617188 297.140625 251.121094 297.542969 251.925781 C 297.945312 252.734375 297.945312 253.4375 297.644531 254.246094 C 297.339844 255.253906 297.039062 256.160156 296.738281 256.964844 C 296.433594 257.871094 296.132812 258.679688 295.730469 259.585938 L 293.109375 266.03125 C 292.605469 267.140625 292.203125 268.351562 291.699219 269.457031 C 291.195312 270.566406 290.792969 271.777344 290.289062 272.882812 L 288.980469 276.308594 C 287.972656 278.726562 287.066406 281.042969 286.160156 283.363281 C 285.253906 285.679688 284.347656 287.996094 283.339844 290.3125 C 282.433594 292.328125 281.628906 294.34375 280.820312 296.460938 C 280.015625 298.476562 279.210938 300.589844 278.40625 302.605469 C 277.699219 304.21875 277.09375 305.828125 276.390625 307.441406 C 275.683594 309.054688 274.878906 310.566406 273.972656 311.976562 C 273.167969 312.984375 272.460938 314.089844 271.757812 315.097656 C 271.050781 316.105469 270.246094 317.011719 269.238281 317.917969 C 267.222656 319.632812 265.109375 320.539062 262.792969 320.539062 C 259.871094 320.539062 257.554688 319.332031 255.640625 316.914062 C 255.035156 316.105469 254.632812 315.300781 254.230469 314.496094 C 253.828125 313.585938 253.527344 312.78125 253.222656 311.875 C 252.820312 310.765625 252.617188 309.558594 252.417969 308.449219 C 252.316406 307.339844 252.117188 306.132812 251.914062 305.023438 C 251.511719 301.496094 251.410156 297.972656 251.511719 294.34375 C 251.511719 293.335938 251.511719 292.226562 251.613281 291.121094 C 251.710938 290.011719 251.8125 288.902344 251.914062 287.695312 C 252.117188 286.6875 252.316406 285.578125 252.417969 284.46875 C 252.519531 283.363281 252.71875 282.253906 252.921875 281.246094 C 253.121094 280.136719 253.324219 278.929688 253.527344 277.820312 C 253.726562 276.710938 253.929688 275.503906 254.128906 274.394531 C 254.332031 273.589844 254.433594 272.78125 254.53125 271.976562 C 254.632812 271.070312 254.734375 270.265625 254.9375 269.359375 C 255.136719 268.550781 255.238281 267.847656 255.339844 267.140625 C 255.4375 266.4375 255.539062 265.730469 255.742188 264.925781 C 255.941406 264.117188 256.042969 263.414062 256.144531 262.507812 C 256.144531 261.699219 256.246094 260.894531 256.347656 259.988281 C 256.144531 259.988281 256.144531 259.585938 255.941406 258.980469 Z M 240.332031 245.679688 C 240.53125 245.480469 240.632812 245.378906 240.734375 245.277344 C 240.835938 245.277344 240.933594 245.175781 241.035156 245.078125 C 242.648438 243.765625 244.257812 242.355469 245.769531 240.945312 C 247.28125 239.535156 248.792969 238.023438 250.203125 236.3125 C 252.113281 234.296875 253.929688 232.28125 255.539062 230.164062 C 257.152344 228.050781 258.664062 225.832031 259.972656 223.414062 C 260.675781 222.304688 261.179688 221.097656 261.683594 219.988281 C 262.1875 218.878906 262.589844 217.570312 262.792969 216.261719 C 263.09375 215.050781 263.296875 213.84375 263.394531 212.632812 C 263.496094 211.527344 263.496094 210.214844 263.195312 208.90625 C 262.894531 207.597656 262.390625 206.488281 261.785156 205.582031 C 260.574219 203.464844 258.761719 202.859375 256.445312 203.867188 C 255.238281 204.472656 254.128906 205.179688 253.121094 206.1875 C 252.015625 207.195312 251.207031 208.300781 250.503906 209.511719 C 249.796875 210.617188 249.195312 211.828125 248.488281 213.136719 C 247.480469 215.152344 246.476562 217.167969 245.769531 219.285156 C 244.964844 221.398438 244.257812 223.515625 243.65625 225.730469 C 243.152344 227.34375 242.746094 229.054688 242.34375 230.769531 C 241.941406 232.480469 241.640625 234.296875 241.335938 236.109375 C 241.136719 237.519531 240.933594 239.03125 240.734375 240.542969 C 240.53125 242.054688 240.332031 243.566406 240.128906 245.074219 L 240.128906 245.679688 Z M 240.332031 245.679688 " fill-opacity="1" fill-rule="nonzero"/><path fill="#000000" d="M 294.21875 276.511719 C 294.21875 276.710938 294.21875 276.8125 294.117188 276.914062 C 294.117188 277.015625 294.015625 277.117188 294.015625 277.316406 C 294.015625 278.222656 294.015625 279.03125 294.015625 279.835938 C 294.015625 280.640625 294.015625 281.449219 294.117188 282.355469 C 294.320312 284.066406 294.621094 285.679688 295.023438 287.292969 C 295.226562 287.996094 295.425781 288.601562 295.628906 289.304688 C 295.828125 290.011719 296.234375 290.617188 296.738281 291.21875 C 297.542969 292.429688 298.550781 293.234375 299.757812 293.539062 C 300.5625 293.839844 301.371094 293.839844 302.378906 293.636719 C 303.382812 293.4375 304.390625 293.136719 305.199219 292.730469 C 306.003906 292.328125 306.808594 291.824219 307.613281 291.320312 C 308.621094 290.617188 309.628906 289.910156 310.535156 289.105469 C 311.441406 288.296875 312.25 287.390625 313.054688 286.484375 C 314.765625 284.671875 316.175781 282.65625 317.386719 280.441406 C 319.097656 277.71875 320.609375 274.898438 321.816406 271.976562 L 324.4375 265.933594 C 324.636719 265.328125 324.839844 264.824219 325.140625 264.21875 C 325.441406 263.613281 325.644531 263.109375 325.847656 262.507812 C 326.148438 261.902344 326.449219 261.398438 326.753906 260.792969 C 327.054688 260.1875 327.257812 259.585938 327.457031 258.878906 L 328.765625 255.855469 C 329.070312 254.949219 329.574219 254.34375 330.378906 253.941406 C 331.183594 253.539062 331.992188 253.640625 332.898438 254.042969 C 333.902344 254.546875 334.609375 255.253906 334.910156 256.160156 C 335.011719 256.761719 334.910156 257.367188 334.609375 258.074219 C 334.207031 258.980469 333.902344 259.785156 333.601562 260.691406 C 333.300781 261.597656 332.996094 262.507812 332.59375 263.414062 C 332.191406 264.320312 331.890625 265.125 331.488281 265.933594 C 331.183594 266.738281 330.78125 267.542969 330.378906 268.449219 C 329.976562 269.257812 329.671875 269.960938 329.269531 270.667969 C 328.96875 271.371094 328.667969 272.179688 328.363281 272.882812 C 328.164062 273.285156 328.0625 273.691406 327.960938 273.992188 C 327.859375 274.394531 327.761719 274.796875 327.558594 275.101562 C 326.851562 276.613281 326.25 278.121094 325.542969 279.535156 C 324.839844 280.945312 324.132812 282.355469 323.226562 283.664062 C 322.523438 284.773438 321.816406 285.878906 321.113281 286.988281 C 320.304688 288.097656 319.601562 289.105469 318.796875 290.113281 C 317.082031 292.128906 315.070312 294.042969 312.75 295.855469 C 310.738281 297.367188 308.722656 298.574219 306.609375 299.480469 C 306.003906 299.785156 305.5 299.984375 304.894531 300.085938 C 304.289062 300.1875 303.6875 300.390625 302.980469 300.589844 C 302.277344 300.691406 301.671875 300.792969 301.066406 300.792969 C 300.464844 300.792969 299.757812 300.894531 298.953125 300.894531 C 297.039062 300.894531 295.125 300.488281 293.3125 299.785156 C 290.792969 298.777344 288.476562 297.164062 286.363281 295.050781 C 285.554688 294.140625 284.851562 293.234375 284.144531 292.328125 C 283.441406 291.320312 282.835938 290.3125 282.332031 289.304688 C 282.132812 288.800781 281.929688 288.296875 281.726562 287.796875 C 281.527344 287.292969 281.324219 286.789062 281.125 286.285156 C 280.820312 285.578125 280.621094 284.972656 280.519531 284.269531 C 280.417969 283.5625 280.21875 282.957031 280.015625 282.253906 C 279.714844 280.742188 279.613281 279.128906 279.613281 277.519531 C 279.613281 276.710938 279.613281 276.007812 279.613281 275.101562 C 279.613281 274.292969 279.714844 273.488281 279.714844 272.683594 L 280.117188 269.660156 C 280.21875 269.15625 280.316406 268.753906 280.316406 268.449219 C 280.417969 268.148438 280.417969 267.746094 280.519531 267.34375 C 280.621094 266.839844 280.722656 266.4375 280.722656 266.132812 C 280.820312 265.832031 280.820312 265.429688 280.921875 264.925781 C 281.125 264.421875 281.226562 263.917969 281.324219 263.515625 C 281.425781 263.011719 281.527344 262.507812 281.726562 262.101562 C 282.03125 260.59375 282.433594 259.179688 283.039062 257.972656 C 283.238281 257.265625 283.441406 256.664062 283.640625 256.058594 C 283.84375 255.453125 284.144531 254.847656 284.449219 254.246094 C 285.050781 252.933594 285.65625 251.625 286.363281 250.417969 C 287.066406 249.207031 287.773438 248.097656 288.679688 246.992188 C 289.585938 245.882812 290.492188 244.773438 291.398438 243.867188 C 293.210938 241.851562 295.328125 240.339844 297.742188 239.433594 C 298.347656 239.234375 298.851562 239.03125 299.457031 238.828125 C 300.058594 238.628906 300.664062 238.527344 301.371094 238.425781 C 302.175781 238.226562 302.878906 238.125 303.6875 238.023438 C 304.492188 238.023438 305.199219 238.023438 306.003906 238.226562 C 309.429688 238.730469 312.148438 240.339844 314.0625 243.261719 C 314.363281 243.765625 314.566406 244.269531 314.867188 244.773438 C 315.070312 245.277344 315.269531 245.78125 315.472656 246.285156 C 315.875 247.292969 316.175781 248.300781 316.378906 249.308594 C 316.480469 249.8125 316.578125 250.214844 316.578125 250.71875 C 316.578125 251.121094 316.679688 251.625 316.679688 252.128906 C 316.679688 252.734375 316.679688 253.238281 316.578125 253.839844 C 316.480469 254.445312 316.480469 254.949219 316.378906 255.453125 C 316.378906 255.957031 316.277344 256.359375 316.277344 256.761719 C 316.175781 257.167969 316.074219 257.570312 315.976562 258.074219 C 315.570312 259.988281 314.96875 262.003906 313.960938 264.015625 C 312.851562 266.234375 311.441406 268.148438 309.832031 269.960938 C 308.621094 271.371094 306.910156 272.78125 304.792969 273.992188 C 302.878906 275 301.167969 275.605469 299.65625 276.007812 C 298.246094 276.410156 296.636719 276.613281 294.722656 276.613281 C 294.621094 276.613281 294.519531 276.613281 294.519531 276.710938 C 294.320312 276.511719 294.21875 276.511719 294.21875 276.511719 Z M 294.21875 268.855469 C 294.519531 268.855469 294.621094 268.855469 294.621094 268.753906 C 295.425781 268.449219 296.234375 267.945312 297.039062 267.34375 C 298.046875 266.535156 298.953125 265.628906 299.65625 264.621094 C 300.363281 263.613281 301.167969 262.507812 301.875 261.5 C 302.878906 259.886719 303.585938 258.273438 304.191406 256.761719 C 304.894531 255.253906 305.398438 253.742188 305.800781 252.429688 C 306.003906 251.925781 306.105469 251.523438 306.203125 251.019531 C 306.203125 250.617188 306.304688 250.113281 306.40625 249.609375 L 306.40625 248.601562 L 306.003906 248.601562 C 305.699219 248.703125 305.398438 248.804688 305.097656 248.804688 C 304.792969 248.90625 304.492188 249.003906 304.191406 249.207031 C 302.878906 250.113281 301.773438 250.917969 301.066406 251.828125 C 299.558594 253.640625 298.347656 255.65625 297.441406 257.769531 C 296.332031 260.089844 295.527344 262.304688 295.023438 264.519531 C 294.921875 265.023438 294.824219 265.527344 294.824219 266.132812 C 294.824219 266.738281 294.621094 267.242188 294.417969 267.746094 C 294.320312 268.046875 294.21875 268.449219 294.21875 268.855469 Z M 294.21875 268.855469 " fill-opacity="1" fill-rule="nonzero"/><path fill="#000000" d="M 351.429688 289.207031 C 351.632812 288.800781 351.832031 288.5 352.035156 288.097656 C 352.234375 287.796875 352.539062 287.390625 352.640625 286.988281 C 354.351562 284.269531 355.964844 281.449219 357.375 278.324219 C 358.078125 277.015625 358.683594 275.605469 359.386719 274.195312 C 360.09375 272.78125 360.695312 271.371094 361.402344 270.0625 C 361.90625 269.054688 362.410156 267.945312 362.8125 266.839844 C 363.316406 265.730469 363.820312 264.621094 364.222656 263.613281 C 364.726562 262.605469 365.128906 261.5 365.632812 260.390625 C 366.035156 259.28125 366.539062 258.175781 367.042969 257.167969 C 367.246094 256.5625 367.445312 256.058594 367.648438 255.453125 C 367.847656 254.847656 368.050781 254.34375 368.25 253.742188 C 368.453125 253.136719 368.65625 252.734375 368.855469 252.429688 C 369.5625 250.917969 370.667969 250.316406 372.179688 250.515625 C 373.890625 250.820312 374.796875 251.828125 374.898438 253.539062 C 375 253.839844 374.898438 254.144531 374.796875 254.546875 C 374.597656 255.050781 374.394531 255.554688 374.296875 256.160156 C 374.195312 256.761719 373.992188 257.265625 373.792969 257.769531 C 373.386719 258.777344 373.085938 259.683594 372.683594 260.59375 C 372.382812 261.5 371.976562 262.40625 371.574219 263.210938 C 371.273438 264.015625 371.070312 264.722656 370.769531 265.328125 C 370.566406 265.933594 370.265625 266.636719 369.964844 267.242188 C 369.660156 268.046875 369.359375 268.855469 369.058594 269.660156 C 368.753906 270.566406 368.453125 271.371094 368.152344 272.078125 C 367.847656 272.882812 367.546875 273.589844 367.246094 274.292969 C 366.941406 275 366.640625 275.804688 366.335938 276.511719 L 364.222656 281.246094 C 364.019531 281.851562 363.820312 282.355469 363.515625 282.957031 C 363.214844 283.5625 362.914062 284.066406 362.609375 284.671875 C 362.007812 285.878906 361.402344 287.191406 360.695312 288.398438 C 360.195312 289.207031 359.789062 290.011719 359.285156 290.816406 C 358.882812 291.722656 358.378906 292.53125 357.875 293.234375 C 357.273438 294.242188 356.769531 295.25 356.164062 296.15625 C 355.558594 297.0625 354.957031 297.972656 354.148438 298.976562 C 353.644531 299.582031 353.144531 300.085938 352.640625 300.589844 C 352.136719 301.09375 351.429688 301.597656 350.726562 302.101562 C 349.617188 302.90625 348.507812 303.210938 347.300781 303.210938 C 346.898438 303.210938 346.59375 303.109375 346.292969 303.109375 C 345.992188 303.007812 345.6875 302.90625 345.386719 302.808594 C 344.078125 302.203125 342.96875 301.496094 342.164062 300.589844 C 341.359375 299.683594 340.652344 298.574219 340.046875 297.367188 C 339.746094 296.660156 339.542969 296.054688 339.445312 295.453125 C 339.34375 294.847656 339.140625 294.140625 338.941406 293.335938 C 338.539062 291.722656 338.335938 289.808594 338.335938 287.59375 C 338.335938 286.585938 338.335938 285.578125 338.335938 284.570312 C 338.335938 283.5625 338.335938 282.554688 338.4375 281.546875 L 338.839844 277.617188 C 338.839844 277.015625 338.839844 276.613281 338.941406 276.308594 C 339.042969 275.503906 339.140625 274.796875 339.140625 273.890625 C 339.140625 273.085938 339.34375 272.277344 339.542969 271.472656 C 339.746094 270.667969 339.847656 269.960938 339.949219 269.054688 C 340.046875 268.25 340.148438 267.441406 340.25 266.535156 L 340.652344 263.917969 C 340.753906 263.414062 340.855469 263.011719 340.855469 262.507812 C 340.855469 262.101562 340.953125 261.597656 341.054688 261.097656 C 341.054688 260.390625 341.054688 259.886719 341.15625 259.382812 C 341.054688 259.382812 340.953125 259.382812 340.953125 259.28125 C 340.855469 259.28125 340.855469 259.179688 340.753906 259.179688 C 337.933594 258.578125 335.414062 257.570312 332.996094 256.160156 C 331.789062 255.554688 330.378906 254.648438 328.96875 253.238281 C 328.164062 252.429688 327.457031 251.726562 326.851562 250.820312 C 326.25 250.011719 325.644531 249.105469 325.039062 248.199219 C 324.335938 246.890625 323.832031 245.578125 323.429688 244.472656 C 322.925781 243.160156 322.621094 241.851562 322.523438 240.742188 C 322.421875 239.535156 322.421875 238.226562 322.523438 237.015625 C 322.621094 234.195312 323.53125 231.675781 325.140625 229.359375 C 326.652344 227.242188 328.566406 225.832031 330.882812 225.226562 C 331.890625 224.824219 333.097656 224.625 334.507812 224.625 C 336.625 224.625 338.335938 225.226562 339.644531 226.539062 C 340.25 227.140625 340.753906 227.847656 341.257812 228.855469 C 341.457031 229.359375 341.660156 229.863281 341.863281 230.46875 C 342.0625 231.070312 342.164062 231.574219 342.265625 232.179688 C 342.464844 233.1875 342.566406 234.296875 342.566406 235.402344 C 342.566406 236.511719 342.566406 237.621094 342.464844 238.628906 C 342.464844 239.132812 342.464844 239.535156 342.363281 240.039062 C 342.363281 240.441406 342.265625 240.945312 342.164062 241.449219 C 341.960938 242.253906 341.761719 242.960938 341.660156 243.664062 C 341.558594 244.371094 341.359375 245.175781 341.15625 245.882812 C 340.953125 246.488281 340.753906 246.992188 340.652344 247.59375 C 340.550781 248.199219 340.351562 248.703125 340.148438 249.308594 C 340.046875 249.914062 340.148438 250.316406 340.453125 250.417969 C 341.15625 251.019531 341.863281 251.523438 342.566406 252.027344 C 343.273438 252.53125 344.078125 252.835938 344.984375 253.035156 C 345.386719 253.238281 345.789062 253.335938 346.292969 253.335938 C 346.796875 253.4375 347.300781 253.539062 347.703125 253.539062 C 348.207031 253.539062 348.609375 253.640625 349.113281 253.742188 C 349.214844 253.742188 349.316406 253.742188 349.414062 253.839844 C 349.515625 253.839844 349.617188 253.941406 349.71875 253.941406 C 350.121094 254.144531 350.523438 254.34375 350.824219 254.546875 C 351.230469 254.75 351.632812 254.949219 351.933594 255.152344 C 353.144531 256.160156 353.949219 257.167969 354.25 258.476562 L 354.25 258.878906 C 354.25 259.382812 354.25 259.886719 354.148438 260.289062 C 354.148438 260.792969 354.050781 261.296875 354.050781 261.699219 C 354.050781 262.003906 354.050781 262.203125 353.949219 262.507812 C 353.949219 262.707031 353.847656 263.011719 353.847656 263.3125 C 353.746094 263.816406 353.746094 264.320312 353.746094 264.824219 C 353.746094 265.328125 353.746094 265.832031 353.644531 266.335938 C 353.546875 266.9375 353.445312 267.441406 353.34375 268.046875 C 353.242188 268.652344 353.140625 269.15625 353.042969 269.660156 C 352.941406 270.164062 352.941406 270.667969 352.941406 271.171875 C 352.941406 271.675781 352.941406 272.179688 352.839844 272.683594 C 352.738281 273.1875 352.640625 273.691406 352.640625 274.09375 C 352.640625 274.597656 352.539062 275.101562 352.4375 275.503906 C 352.4375 275.703125 352.4375 275.90625 352.335938 276.109375 C 352.335938 276.308594 352.234375 276.511719 352.234375 276.710938 C 352.136719 277.214844 352.136719 277.71875 352.136719 278.222656 C 352.136719 278.726562 352.136719 279.230469 352.035156 279.734375 L 351.632812 282.757812 C 351.632812 282.957031 351.632812 283.160156 351.53125 283.363281 C 351.53125 283.5625 351.429688 283.867188 351.429688 283.964844 C 351.429688 284.570312 351.429688 285.074219 351.328125 285.679688 C 351.328125 286.285156 351.230469 286.789062 351.230469 287.390625 C 351.128906 287.59375 351.128906 287.894531 351.128906 288.296875 L 351.230469 288.601562 L 351.230469 289.207031 Z M 334.105469 245.378906 C 334.308594 244.671875 334.507812 244.070312 334.609375 243.566406 C 334.710938 243.0625 334.910156 242.558594 335.113281 242.054688 C 335.3125 241.449219 335.414062 240.945312 335.515625 240.339844 C 335.617188 239.738281 335.71875 239.234375 335.816406 238.628906 C 335.917969 238.023438 336.019531 237.519531 336.019531 236.914062 C 336.019531 236.3125 336.019531 235.707031 335.917969 235 C 335.71875 234.195312 335.414062 233.589844 335.011719 232.984375 C 334.507812 232.382812 333.902344 232.078125 332.996094 231.878906 C 332.089844 231.777344 331.386719 232.078125 330.679688 232.785156 C 330.175781 233.488281 329.875 234.195312 329.671875 234.898438 C 329.371094 236.410156 329.472656 237.921875 329.773438 239.234375 C 330.175781 240.339844 330.679688 241.449219 331.285156 242.355469 C 331.890625 243.261719 332.695312 244.070312 333.5 244.875 Z M 334.105469 245.378906 " fill-opacity="1" fill-rule="nonzero"/><path fill="#000000" d="M 42.605469 95.863281 C 45.328125 88.003906 49.457031 81.050781 53.988281 74.503906 C 67.386719 54.957031 83.902344 38.636719 104.148438 26.34375 C 114.925781 19.796875 126.308594 14.757812 138.898438 12.441406 C 144.035156 11.632812 149.175781 11.332031 154.109375 12.441406 C 164.082031 14.554688 170.730469 21.304688 172.441406 31.582031 C 173.75 39.039062 172.542969 46.191406 170.125 53.144531 C 164.785156 68.558594 155.621094 81.554688 144.945312 93.746094 C 136.683594 103.417969 127.015625 111.679688 116.539062 118.933594 C 116.136719 119.335938 115.53125 119.4375 115.429688 120.042969 C 115.53125 120.144531 115.632812 120.246094 115.835938 120.246094 C 123.792969 122.964844 127.617188 128.910156 129.128906 136.769531 C 130.941406 146.136719 129.230469 155.207031 125.707031 163.972656 C 119.863281 178.78125 110.695312 190.769531 96.496094 198.628906 C 90.046875 202.054688 83.300781 203.96875 75.945312 202.457031 C 68.894531 200.746094 63.355469 195.101562 62.449219 188.453125 C 61.945312 184.828125 63.054688 181.300781 64.765625 177.875 C 68.59375 170.417969 74.4375 164.574219 81.585938 160.140625 C 82.394531 159.539062 83.097656 158.933594 83.300781 157.824219 C 84.910156 150.671875 86.421875 143.417969 88.035156 136.265625 C 88.234375 135.558594 88.234375 135.054688 87.226562 134.550781 C 84.105469 133.242188 83.300781 129.3125 85.617188 126.59375 C 86.722656 125.28125 87.933594 124.273438 89.445312 123.671875 C 90.953125 122.964844 91.359375 121.957031 91.660156 120.546875 C 94.78125 106.644531 97.90625 92.4375 101.53125 78.734375 C 103.445312 71.277344 106.164062 64.226562 108.882812 56.972656 C 109.488281 55.664062 110.09375 54.453125 111.402344 53.546875 C 113.921875 51.933594 116.941406 53.144531 117.34375 56.066406 C 117.746094 57.878906 117.34375 59.691406 116.238281 61.203125 C 115.632812 62.210938 115.128906 63.117188 114.726562 64.125 C 109.890625 78.734375 106.667969 93.949219 103.144531 108.960938 C 102.4375 112.082031 101.632812 115.410156 100.824219 119.136719 C 103.144531 117.625 105.054688 116.417969 106.96875 115.207031 C 124.292969 103.722656 139.203125 89.816406 150.683594 72.285156 C 155.921875 64.023438 160.859375 55.5625 163.175781 45.890625 C 164.183594 41.457031 164.6875 37.125 163.777344 32.691406 C 162.269531 25.335938 157.535156 21.304688 150.082031 20.703125 C 142.929688 20.199219 136.078125 21.710938 129.332031 24.027344 C 114.523438 29.164062 101.632812 37.324219 89.949219 47.5 C 75.542969 59.792969 63.457031 74.101562 54.492188 90.824219 C 52.074219 95.359375 49.960938 99.894531 48.953125 105.03125 C 48.75 106.039062 48.75 107.148438 48.75 108.054688 C 48.851562 110.167969 49.859375 110.976562 51.875 110.976562 C 54.390625 110.875 56.105469 112.082031 56.40625 114.300781 C 56.609375 116.515625 55.097656 118.332031 52.578125 118.734375 C 46.835938 119.742188 41.597656 115.710938 40.59375 109.867188 C 39.988281 104.730469 41.195312 100.195312 42.605469 95.863281 Z M 111.199219 128.101562 C 109.285156 127.597656 107.171875 127.597656 105.257812 127.597656 C 102.738281 127.597656 100.824219 129.109375 98.914062 130.421875 C 97.703125 131.125 98.105469 132.839844 97.703125 134.046875 C 97.601562 134.148438 97.601562 134.449219 97.601562 134.550781 C 96.09375 140.898438 94.683594 147.347656 93.171875 153.996094 C 95.085938 153.390625 96.695312 152.886719 98.410156 152.484375 C 100.523438 152.082031 102.539062 152.285156 104.351562 153.492188 C 106.769531 155.304688 106.769531 158.730469 104.25 160.242188 C 103.242188 160.847656 102.335938 160.949219 101.328125 161.050781 C 99.011719 161.148438 96.898438 162.054688 94.78125 162.863281 C 91.761719 163.972656 89.542969 165.582031 89.242188 169.109375 C 89.242188 169.210938 89.140625 169.3125 89.140625 169.613281 C 87.832031 173.039062 84.910156 173.84375 81.992188 171.828125 C 81.488281 171.425781 81.183594 171.226562 80.679688 171.730469 C 76.753906 175.253906 73.328125 179.285156 71.617188 184.421875 C 71.011719 186.539062 71.011719 188.65625 72.621094 190.570312 C 74.4375 192.683594 76.753906 193.894531 79.574219 194.195312 C 83.703125 194.597656 87.53125 193.59375 91.15625 191.675781 C 102.941406 185.53125 111 176.0625 116.4375 163.972656 C 119.863281 156.113281 121.976562 148.253906 120.871094 139.589844 C 119.964844 133.039062 117.042969 129.414062 111.199219 128.101562 Z M 111.199219 128.101562 " fill-opacity="1" fill-rule="nonzero"/><path fill="#000000" d="M 152.597656 136.363281 C 151.996094 140.292969 151.894531 144.222656 153.203125 148.050781 C 154.714844 152.285156 157.03125 153.292969 161.160156 151.679688 C 166.195312 149.867188 170.023438 146.441406 173.75 142.613281 C 176.671875 139.691406 179.390625 136.464844 182.210938 133.542969 C 182.917969 132.738281 183.824219 131.933594 184.628906 131.226562 C 186.339844 130.015625 188.558594 130.117188 189.96875 131.628906 C 191.480469 133.140625 191.78125 135.257812 190.570312 137.171875 C 189.867188 138.179688 188.960938 138.984375 188.15625 139.890625 C 183.925781 144.625 179.695312 149.5625 174.757812 153.59375 C 170.527344 157.019531 166.097656 159.941406 160.554688 160.949219 C 155.015625 162.054688 150.28125 160.140625 147.160156 155.304688 C 144.441406 151.074219 143.332031 146.238281 143.535156 141.101562 C 143.9375 130.320312 147.765625 121.050781 155.015625 113.191406 C 157.734375 110.269531 160.957031 108.054688 164.988281 107.652344 C 170.226562 107.148438 173.75 109.96875 174.65625 115.105469 C 175.96875 122.761719 170.628906 131.832031 162.871094 134.855469 C 159.953125 135.960938 157.03125 136.464844 154.109375 135.457031 C 153.101562 135.257812 152.699219 135.457031 152.597656 136.363281 Z M 156.226562 127.699219 C 156.726562 128.203125 157.535156 128.101562 158.136719 127.800781 C 162.167969 126.792969 165.996094 122.058594 166.097656 117.925781 C 166.097656 116.316406 165.59375 116.113281 164.28125 116.820312 C 160.457031 118.734375 158.542969 122.359375 156.425781 125.683594 C 156.226562 126.390625 155.621094 127.097656 156.226562 127.699219 Z M 156.226562 127.699219 " fill-opacity="1" fill-rule="nonzero"/><path fill="#000000" d="M 161.363281 62.515625 C 159.75 62.613281 158.441406 62.011719 157.535156 60.398438 C 156.828125 59.089844 156.929688 57.675781 157.734375 56.46875 C 158.441406 55.460938 159.449219 54.855469 160.65625 54.753906 C 169.722656 53.546875 178.585938 52.335938 187.652344 51.230469 C 192.789062 50.625 197.925781 50.121094 202.859375 49.71875 C 204.371094 49.617188 204.773438 49.011719 205.277344 47.601562 C 207.191406 41.15625 209.207031 34.503906 211.625 28.15625 C 212.730469 25.335938 215.046875 24.226562 217.769531 25.335938 C 219.882812 26.140625 220.890625 28.863281 219.582031 30.675781 C 218.273438 32.589844 217.769531 34.707031 217.164062 36.921875 C 215.953125 40.75 214.949219 44.480469 213.839844 48.507812 C 218.070312 48.105469 222.097656 47.804688 226.128906 47.402344 C 227.941406 47.300781 229.753906 46.898438 231.769531 46.898438 C 233.378906 46.898438 233.683594 46.292969 234.085938 44.78125 C 236 36.519531 238.113281 28.257812 240.835938 20.296875 C 241.539062 18.183594 242.042969 16.066406 243.25 14.050781 C 244.761719 11.632812 247.078125 10.726562 249.09375 11.9375 C 251.207031 13.144531 251.613281 16.167969 250.101562 18.382812 C 249.496094 19.390625 249.09375 20.296875 248.890625 21.40625 C 246.574219 28.964844 245.066406 36.820312 243.152344 44.480469 C 242.746094 45.789062 243.351562 45.789062 244.359375 45.6875 C 248.792969 45.285156 253.121094 44.984375 257.554688 44.578125 C 266.621094 43.773438 275.785156 42.96875 284.851562 42.261719 C 294.824219 41.457031 304.894531 40.449219 314.867188 39.542969 C 320.207031 39.039062 325.441406 38.835938 330.679688 39.039062 C 332.898438 39.039062 335.113281 39.542969 336.824219 40.953125 C 338.335938 42.261719 338.941406 43.976562 338.335938 45.585938 C 337.730469 47.300781 336.121094 48.410156 334.105469 48.105469 C 327.15625 46.996094 320.207031 47.90625 313.253906 48.308594 C 305.097656 48.914062 296.9375 49.820312 288.777344 50.523438 C 279.511719 51.332031 270.246094 52.136719 260.980469 52.839844 C 254.734375 53.34375 248.386719 53.949219 242.144531 54.453125 C 241.035156 54.554688 240.632812 54.957031 240.429688 56.066406 C 233.882812 84.980469 227.234375 113.898438 222.097656 143.117188 C 219.378906 158.832031 216.761719 174.75 214.644531 190.570312 C 212.832031 204.273438 211.019531 218.074219 209.003906 231.675781 C 208.902344 232.785156 208.601562 233.894531 207.898438 234.699219 C 206.789062 236.210938 204.976562 236.613281 203.261719 236.007812 C 201.351562 235.402344 200.242188 233.792969 200.34375 231.574219 C 200.542969 228.652344 201.046875 225.730469 201.449219 222.910156 C 202.761719 212.734375 204.171875 202.660156 205.480469 192.683594 C 207.394531 178.78125 209.609375 164.976562 211.925781 151.175781 C 214.949219 132.335938 218.773438 113.59375 222.703125 94.957031 C 225.421875 82.261719 228.34375 69.667969 231.265625 57.074219 C 231.667969 55.5625 231.265625 55.359375 229.957031 55.460938 C 224.214844 56.066406 218.472656 56.570312 212.730469 57.074219 C 211.523438 57.074219 211.222656 57.878906 210.917969 58.785156 C 206.285156 75.613281 201.652344 92.4375 198.226562 109.566406 C 193.796875 131.933594 190.070312 154.5 187.046875 177.070312 C 186.242188 183.820312 185.234375 190.46875 184.328125 197.117188 C 184.226562 197.824219 184.125 198.628906 183.824219 199.234375 C 183.117188 201.652344 181.003906 202.859375 178.6875 202.355469 C 176.46875 201.855469 175.058594 199.839844 175.363281 197.320312 C 176.167969 190.769531 177.175781 184.019531 178.082031 177.269531 C 179.894531 163.972656 182.011719 150.671875 184.226562 137.472656 C 188.355469 112.992188 193.390625 88.609375 200.242188 64.832031 C 200.847656 62.917969 201.351562 61.003906 201.851562 59.089844 C 202.257812 58.28125 202.054688 57.980469 201.148438 58.082031 C 193.796875 58.785156 186.542969 59.59375 179.191406 60.296875 C 173.246094 61.40625 167.203125 62.011719 161.363281 62.515625 Z M 161.363281 62.515625 " fill-opacity="1" fill-rule="nonzero"/><path fill="#000000" d="M 244.863281 136.363281 C 244.257812 140.292969 244.15625 144.222656 245.46875 148.050781 C 246.976562 152.285156 249.296875 153.292969 253.425781 151.679688 C 258.460938 149.867188 262.289062 146.441406 266.015625 142.613281 C 268.9375 139.691406 271.65625 136.464844 274.476562 133.542969 C 275.179688 132.738281 276.085938 131.933594 276.894531 131.226562 C 278.605469 130.015625 280.820312 130.117188 282.230469 131.628906 C 283.640625 133.140625 284.046875 135.257812 282.835938 137.171875 C 282.132812 138.179688 281.226562 138.984375 280.417969 139.890625 C 276.1875 144.625 271.957031 149.5625 267.023438 153.59375 C 262.792969 157.019531 258.359375 159.941406 252.820312 160.949219 C 247.28125 162.054688 242.546875 160.140625 239.425781 155.304688 C 236.703125 151.074219 235.597656 146.238281 235.796875 141.101562 C 236.199219 130.320312 240.027344 121.050781 247.28125 113.191406 C 250 110.269531 253.222656 108.054688 257.253906 107.652344 C 262.488281 107.148438 266.015625 109.96875 266.921875 115.105469 C 268.230469 122.761719 262.894531 131.832031 255.136719 134.855469 C 252.214844 135.960938 249.296875 136.464844 246.375 135.457031 C 245.367188 135.257812 244.964844 135.457031 244.863281 136.363281 Z M 248.488281 127.699219 C 248.992188 128.203125 249.796875 128.101562 250.402344 127.800781 C 254.433594 126.792969 258.257812 122.058594 258.359375 117.925781 C 258.359375 116.316406 257.855469 116.113281 256.546875 116.820312 C 252.71875 118.734375 250.804688 122.359375 248.691406 125.683594 C 248.488281 126.390625 247.886719 127.097656 248.488281 127.699219 Z M 248.488281 127.699219 " fill-opacity="1" fill-rule="nonzero"/><path fill="#000000" d="M 287.46875 144.828125 C 287.671875 142.511719 287.570312 142.511719 285.253906 142.914062 C 285.050781 142.914062 284.75 142.914062 284.449219 143.015625 C 278.90625 143.519531 275.585938 140.496094 275.785156 134.953125 C 276.1875 128.101562 278.808594 122.359375 283.640625 117.523438 C 284.449219 116.71875 285.554688 115.914062 286.664062 115.410156 C 290.492188 113.898438 294.320312 116.113281 294.824219 120.144531 C 295.425781 123.972656 294.015625 127.195312 292.304688 130.421875 C 291.699219 131.527344 290.59375 132.636719 290.59375 133.542969 C 290.59375 134.652344 292.304688 134.652344 293.109375 135.355469 C 295.226562 137.171875 296.03125 139.386719 296.234375 141.90625 C 296.433594 146.945312 295.125 151.78125 293.917969 156.515625 C 291.699219 165.28125 289.382812 174.046875 288.277344 183.113281 C 287.871094 186.136719 287.570312 189.257812 288.175781 192.585938 C 290.089844 191.375 291.5 189.761719 292.707031 188.152344 C 297.441406 182.207031 301.269531 175.457031 305.296875 169.007812 C 310.9375 160.140625 316.480469 151.175781 322.121094 142.308594 C 322.722656 141.300781 323.328125 140.394531 324.335938 139.589844 C 326.148438 138.078125 328.261719 137.875 329.976562 139.1875 C 331.585938 140.394531 332.089844 142.613281 330.882812 144.726562 C 329.574219 147.144531 327.960938 149.5625 326.351562 152.082031 C 318.996094 163.769531 311.746094 175.558594 304.289062 187.246094 C 302.175781 190.367188 299.859375 193.59375 297.339844 196.414062 C 295.628906 198.226562 293.714844 199.839844 291.398438 200.945312 C 286.363281 203.164062 281.628906 201.046875 280.015625 195.808594 C 279.210938 192.886719 279.210938 189.863281 279.410156 186.742188 C 280.015625 176.160156 282.835938 165.886719 285.253906 155.609375 C 285.957031 152.082031 287.066406 148.554688 287.46875 144.828125 Z M 287.46875 144.828125 " fill-opacity="1" fill-rule="nonzero"/><path fill="#010101" d="M 140.007812 187.445312 C 136.078125 187.546875 131.246094 184.925781 128.121094 184.925781 C 123.792969 185.027344 119.964844 189.5625 117.746094 194.699219 C 115.128906 200.746094 115.332031 205.683594 116.941406 210.316406 C 118.152344 214.144531 120.164062 217.875 122.683594 221.800781 C 124.597656 224.824219 127.316406 228.050781 130.539062 229.257812 C 131.445312 229.660156 132.351562 229.863281 133.359375 229.863281 C 136.484375 229.863281 138.09375 227.949219 140.308594 227.949219 C 143.433594 228.050781 144.742188 231.171875 149.675781 229.15625 C 152.902344 227.847656 155.621094 224.722656 157.535156 221.703125 C 160.050781 217.773438 161.964844 214.042969 163.277344 210.214844 C 164.886719 205.480469 164.988281 200.542969 162.46875 194.597656 C 160.253906 189.359375 156.425781 184.925781 152.09375 184.828125 C 148.871094 184.925781 143.9375 187.546875 140.007812 187.445312 Z M 140.007812 187.445312 " fill-opacity="1" fill-rule="evenodd"/><path fill="#010101" d="M 134.871094 175.355469 C 136.179688 174.851562 137.589844 174.246094 138.898438 173.742188 C 140.914062 178.882812 141.316406 182.609375 141.71875 188.050781 C 140.914062 188.050781 140.109375 188.050781 139.402344 188.050781 C 139.402344 183.820312 138.394531 179.386719 134.871094 175.355469 Z M 134.871094 175.355469 " fill-opacity="1" fill-rule="evenodd"/></svg>